<?xml version="1.0" encoding="UTF-8"?>
<svg xmlns="http://www.w3.org/2000/svg" viewBox="0 0 136.95 49.44"><defs><style>.e{fill:#fff;}.f{fill:#ed1c24;}.g{fill:#231f20;}</style></defs><g id="a"/><g id="b"><g id="c"><g><path class="g" d="M135.98,37.89c-.55-1.13-1.71-3.03-2.54-4.05-.79-.97-4.17-3.51-4.88-3.75-.72-.24-1.55-.06-2.54,.56-.33,.21-.95,.39-1.72,.61l-1.38,.42c-.82,.26-3.03,.68-6.18,1.17v-.62h-1.07c.74-.66,1.22-1.59,1.22-2.61,0-.97-.39-1.86-1.06-2.52,.01-.15,.06-.84,.13-1.78,.05-.02,.1-.03,.14-.05,1.05-.37,3.11-.78,3.79-.77,.32,0,1.16,.03,1.52-.69,.36-.73-.14-1.4-.43-1.81-.53-.72-1.2-1.57-2.19-2.45-.77-.68-1.58-1.15-2.32-1.36l.03-.41c.41-.4,4.17-4.1,4.17-4.1h-9.34c.05-.08,.1-.16,.16-.24,.16-.23,.4-.57,.4-1.01,0-.09,0-.18-.03-.28-.07-.31-.23-.53-.43-.71,.56-.08,1.03-.13,1.35-.14,1.46-.04,3.42-.73,3.51-.76l.26-.09,.18-.22c.05-.06,.32-.42,.78-1.28,.24-.46,.42-.92,.57-1.32,.14-.37,.27-.71,.43-.99,.19-.34,.25-.64,.25-.9,0-.17-.03-.32-.06-.44-.22-.75-.92-1.1-1.43-1.35,0,0-.52-.27-.52-.27-.61-.32-1.46-.76-2.24-1.07-1.11-.43-2.43-.5-2.49-.5h-.17l-.16,.04s-1.03,.32-2.26,.92c-1.08,.53-5.49,2.26-8.7,3.31-2.13,.7-5.42,1.38-6.31,1.38-1.23,0-2.07,.37-2.16,.41l-.76,.35,.22,.82c.03,.11,.3,1.11,.68,1.75l.21,.39c.14,.28,.3,.59,.61,.9,.42,.4,1.05,.69,1.97,1.09,.47,.2,1,.39,1.65,.5l-2.73,.86,2.83,2.83v1.02c-1.07-2.42-3-4.39-5.61-5.14,0-.08-.02-.15-.03-.21v-.07c-.08-.43-.42-1.64-1.02-2.68-.6-1.03-1.53-1.48-2.21-1.69,.35-.31,.55-.76,.55-1.32,0-.64-.27-1.19-.75-1.49-.42-.27-.91-.27-1.39-.27h-1.63v1.24l-.19-1.24h-1.8s-.22,.73-.31,1.04c-.11-.37-.31-1.04-.31-1.04h-.76c-.04-.28-.09-.57-.12-.68,0,0,.01,.12,.02,.18-.03-.99-1.24-1.26-1.64-1.35l-1.43-.28c-.48-.09-.97-.18-1.2-.24-.6-.17-1.29-.27-2.69-.25-1.43,.02-2.37,.29-2.41,.3l-1.6,.47,1.17,1.2c.78,.8,1.74,1.86,1.92,2.15l.18,.29c.15,.24,.32,.5,.46,.83l-.21,.18-.93,.85,.23,.36c.33,.5,.82,.78,1.41,.8,.11,.92,.3,2.53,.52,4.35-.62-1-1.72-1.67-2.98-1.69-.02-.03-.04-.05-.06-.08-.58-.75-1.02-1.1-1.31-1.33l-.19-.16-.02-.02c-.08-.08-.17-.14-.25-.21,.3-.26,.62-.61,.82-.95h1.01V5.83h-1.97v1.25h-.02c-.37-.52-.91-1.25-.91-1.25h-4.12c-.15-.11-.31-.21-.5-.3-.82-.38-2.05-.82-2.73-1l-.19-.05c-.56-.16-1.2-.33-2.02-.44-.91-.12-1.71-.1-1.74-.1l-2.04,.07,1.33,1.58s.08,.1,.2,.25c-.42,.11-.82,.32-1.14,.63-.14,.14-.27,.3-.37,.46v-1.09h-2.01v1.44h-.35v-1.44h-2.01v.31c-.39-.26-.84-.4-1.34-.4-1.03,0-1.78,.72-1.78,1.7,0,.35,.09,.61,.23,.81-.06,.03-.12,.04-.18,.07-.23,.12-.42,.16-.86,.27l-1.29,.33c-1,.29-1.13,.3-2.01,.36l-.72,.05c-.11,0-.22,0-.33,.01,.74-.75,1.36-1.3,1.7-1.51,.47-.29,.94-.77,.94-1.49,0-.26-.06-.56-.22-.9l-.04-.08c-.21-.54-.96-1.42-1.34-1.73l-.37-.34c-.37-.34-.87-.81-1.5-1.3-1.07-.83-2.86-1.13-3.06-1.17l-1.44-.23,.33,1.45c.07,.32,.26,1.3,.21,1.9-.06,.87-.37,3.15-1.91,5.46-.4,.6-.83,1.18-1.26,1.74-.11-.14-.24-.26-.4-.36-.37-.23-.81-.45-1.26-.62-.3-.12-.84-.25-1.55-.12,.12-.19,.2-.38,.2-.57v-.06c.02-.22,.05-.63-.03-1.08v-.28c-.02-.75-.05-2.02-.8-2.88-.83-.96-2.19-1.37-3.19-1.68l-.09-.03c-.78-.24-2.15-.28-2.91-.28,0,0-1.14-.02-2.21,.36-.59,.21-.55,.41-.39,.51,.16,.1,1.07,.83,1.52,1.2,.12,.1,.24,.21,.32,.3,.29,.32,.93,1.14,1.4,1.91,.34,.56,.51,.92,.68,1.3l.17,.37c.32,.67,.78,1.29,1.44,1.94,.02,.02,.04,.04,.07,.06-.76,.16-1.67,.34-2.78,.54-1.65,.3-3.63,.41-4.82,.47l-.37,.02c-.13,0-.24,.01-.35,.02,1.02-1.19,.75-2.97-.12-4.17-.87-1.21-4.03-2.4-5.08-2.7-1.28-.36-2.47-.4-2.99-.42l-.34,.02h.02c-1.02,.11-1.85,.43-1.86,.51-.01,.06,.89,.64,1.44,1.31,.13,.16,.4,.45,.7,.8h0c.68,.78,1.03,1.23,1.49,1.93l.52,.77c.48,.72,1.08,1.61,1.33,2.06,.27,.51,.79,.86,1.47,1.01,.33,.07,.67,.09,1.01,.06,0,.02,.01,.05,.02,.07-.32-.02-.66,.09-1,.26h0c-.42,.22-.83,.53-1.18,.85-.82,.75-1.31,1.06-1.46,1.11-.16,.07-.52,.03-.93,0h-.07c-.47-.05-1.04-.2-1.89-.5-.66-.23-1.59-.44-2.34-.61l-.77-.18c-.39-.1-1.95-.42-2-.38-.05,.04,.09,1.3,.35,2.2l.04,.12c.2,.65,.57,1.84,1.11,2.63,.48,.7,1.31,1.13,2.05,1.47l.19,.09,.1,.06c.41,.24,.66,.24,1.08,.16,.02,0,.45-.11,.45-.11,0,0,1.28-.29,1.38-.31-.23,.32-.45,.64-.62,.9-.5,.77-.94,1.61-1.23,2.17l-.21,.4-.1,.18c-.22,.38-.34,.67-.34,.98,0,.26,.09,.53,.27,.89,.24,.47,.57,1.27,.74,1.88l.13,.42c.16,.47,.29,.9,.29,1.32,0,.28-.06,.55-.21,.83-.36,.11-.82,.24-.82,.24-.62,.2-1.16,.37-1.53,.35h-.34c-.76-.04-1.54-.07-2.3-.29l-5.55-1.63,1.15,2.53c.49,1.08,.57,1.24,1.2,2.17,.78,1.14,3.06,2.4,3.32,2.54,1.02,.56,1.79,.35,2.16-.03l-.03,.03c.08-.07,.54-.38,1.59-.95l.69-.42c.41-.27,.52-.34,1.81-.23,1.84,.16,6.08,2.13,9.26,4.3l2.96,2.04c2.33,1.61,4.35,3.01,5.27,3.56,1.42,.84,4.58,1.59,5.27,1.63,.71,.05,1.58-.13,2.11-.3,.17-.05,.99-.39,1.14-.78,.04-.11-.12-.24-.21-.33-.03-.02-.01-.07-.02-.11,.11-.08,.24-.16,.35-.24,.35-.24,.79-.53,1.21-.87,.45-.36,2.48-.98,3.68-1.34,.31-.1,.59-.18,.85-.26-.49,.61-.94,1.08-1.34,1.49-1.68,1.74-2.42,2.35-3.2,3-1.69,1.4-3.76,2.56-3.76,2.56l1.14-.1c1.29-.08,4.09-.57,4.32-.66l.71-.25,.79-.29c.14-.06,.55-.2,.7-.22,.6-.07,1.17-.52,2.15-1.44,1.95-1.83,3.58-3.71,4.9-5.6h1.39c.18,.28,.38,.57,.62,.84,.4,.47,.69,.7,.94,.91l.54,.49c.16,.16,.29,.37,.41,.57,.27,.44,.68,1.1,1.5,1.1,.38,0,1.56,0,2.47-.77,.35-.29,1.46-.95,3.43-1.53,1.87-.55,3.99-1.14,5.43-1.21,1.51-.08,2.38-.08,3.86,.07,1.46,.15,2.27,.24,2.75-.49h5.17c.07,0,.94,0,1.88,0,1.31,2.19,2.63,3.53,4.51,4.69,2.26,1.39,3.46,1.66,4.61,1.92l.53,.12c.92,.23,1.64,.14,2.17-.28,.77-.59,.82-1.6,.83-1.93l.03-1.9h0c1.06,.49,1.98,.55,2.87,.14,.17-.08,.94-.28,1.62-.46,1.29-.34,3.05-.82,4.74-1.4,1.12-.39,2.36-.67,3.62-.89h3.84v-.51h.1c.53,.32,1.17,.51,1.9,.51h3.9v-.92c2.08-.1,4.03-.17,4.65-.09,.88,.1,2.46,.2,3.86,.29l1.82,.12c.7,.05,1.31-.02,1.86-.08,.58-.07,1.08-.12,1.61-.04l.58,.09c.95,.15,1.77,.28,2.88,.65,.5,.16,1.54,.51,2.15-.22,.61-.72,.14-1.68-.17-2.31Zm-115.57-5.71s-.02,.05-.02,.07c-1.68-.61-2.83-1.12-3.57-1.45,.49-.18,1.07-.42,1.69-.75,.32-.17,.71-.39,1.13-.65,.1,.24,.21,.53,.32,.91l.25,.82c.16,.52,.23,.75,.23,.91,0,.05,0,.09-.02,.13Zm.11-8.51c-1.05,1.17-3.15,3.41-4.27,4.48-.04-.71-.21-1.3-.42-1.75-.38-.82-.69-1.3-.89-1.57,.6-.86,1.98-2.74,2.71-3.42,.64-.6,1.45-1.12,2.41-1.55,.45-.2,1.26-.57,1.4-1.39,.21,.2,.35,.35,.39,.38,.04,.07,.42,.74,.91,1.59-.68,1.13-1.56,2.49-2.23,3.23Zm4.53,2.17l-.05,.11c-.76,1.75-1.07,2.1-1.11,2.15-.17,.14-.26,.19-.41,.27l-.16,.09c-.24-.2-.53-.41-.85-.58-.09-.05-.19-.09-.29-.14,.9-.66,1.77-1.37,2.41-2.08,.17-.19,.31-.35,.47-.52v.7Zm7.28-3.31c.28,.27,.72,.71,.87,.86v.68l-.64-.02c-.42,0-.77,0-1.09,.01,.21-.38,.53-.94,.85-1.53Zm1.12,8.27c-.75-.74-1.89-1.86-2.18-2.15v-.51c.24,.21,.46,.38,.68,.49,.42,.21,.85,.3,1.26,.28v.12c0,.48,.15,1.02,.4,1.56-.05,.08-.1,.14-.15,.21Zm1.17-11.79l-.21,.24-.3,.1c.11-.19,.27-.49,.29-.53l.05-.05c.08,.05,.17,.12,.25,.17-.02,.02-.06,.04-.08,.06Zm4.48-4.42c-.18,.02-.34,.02-.48,.02l.92-.92h-.56c.11-.1,.23-.2,.34-.3,.37,.12,.73,.23,1.1,.29,.62,.12,1.26,.16,1.98,.14-1.01,.37-2.49,.69-3.3,.76Zm10.52,17.28c-1.13-1.11-2.87-2.82-3.16-3.11v-2.84h4.62c-.3,1.82-.77,3.85-1.46,5.95Zm1.98-10.67h-4.65c.32-.58,.72-1.3,1.1-1.98h.05c.59-.11,1.09-.46,1.36-.97,.13-.25,.2-.52,.2-.78,0-.19-.04-.38-.11-.55-.22-.55-1.08-1.56-1.46-1.95-.01-.01-.84-.85-1.49-1.47,.14,0,.25,0,.32,.02l.14,.02c.65,.11,1.63,.27,2.29,.27,.37,0,.9-.12,1.42-.32,0,.12,.01,.24,.05,.37,.11,.38,.74,3.61,.82,4.44,0,.02,.06,1.12-.04,2.9Zm5.52-6.83c-.23,.02-.46,.04-.64,.05-.33-.35-.86-.84-1.4-1.14-.78-.42-1.29-.6-2.06-.81-.19-.05-.38-.1-.56-.14,.34-.52,.39-1.17,.17-1.8h.97v-1.51h.35v1.51h2.01v-1.06c.14,.23,.33,.43,.55,.61,.45,.36,1.01,.56,1.57,.56,.3,0,.59-.06,.87-.16,.02,.27,.03,.53,.03,.76,0,.59,.03,1.59,.05,2.4-.66,.18-1.29,.42-1.9,.73Zm11.89,14.37c-.13,.13-.34,.34-.65,.64-.07,.03-.15,.04-.21,.07,.02-.1,.04-.19,.04-.19,.05-.22,.14-.57,.14-.93s-.09-.7-.34-.97v-.06c.4,.04,.77,.09,1.02,.15v1.29Zm8.03,1.81c-.84-.82-1.62-1.6-1.81-1.79v-2.85h1.46c.26,1.38,.57,2.81,.9,4.18-.18,.16-.36,.31-.54,.46Zm6.22-15c-.4,.22-.86,.49-1.99,1.24-.19-1.9-.3-3.61-.3-4.89,0-.35,0-.67,.02-.95l.24,.23,1.51,1.43c.59,.55,1.39,1.2,2.08,1.73-.57,.34-1.1,.74-1.57,1.2Zm5.99,20.2c-.09-1.03-.42-1.88-.96-2.48,.24,.02,.49,.03,.74,.03,.35,0,.67-.04,1-.08-.23,.84-.5,1.74-.77,2.52Zm-.23-6.94c-.55,0-.96-.31-1.27-.81,1.14-1.27,2.07-2.09,2.53-2.39l.38-.21c.14-.06,.26-.13,.36-.21-.18,1.92-.71,3.62-2,3.62Zm1.26-7.11c-.25-.17-.63-.38-1.12-.63-.48-.25-1.02-.53-1.46-.81-.15-.09-.32-.16-.49-.23,0-.05,.02-.09,.03-.14,.87-.33,1.62-.6,2.05-.76,.25-.09,.7-.25,.99-.62,.6,.98,.79,2.69,.82,4.3-.19-.42-.46-.86-.82-1.12Zm6.76,12.79v-1.66c.16,0,.34,0,.56,0h.14c-.22,.52-.52,1.23-.7,1.65Zm4.84-1.36v1.35c-.17-.41-.47-1.12-.69-1.64h.69v.29Z"/><path class="e" d="M36.42,49.44l-.2-.97h0s1.99-1.13,3.6-2.47c.76-.63,1.48-1.23,3.16-2.96,.04-.04,.09-.09,.13-.14-1.04,.32-2.36,.76-2.65,.99-.41,.33-.84,.62-1.19,.86,.06,.14,.09,.3,.02,.48-.27,.7-1.45,1.07-1.46,1.08-.6,.19-1.53,.37-2.29,.32-.74-.05-3.99-.81-5.49-1.7-.95-.57-2.97-1.96-5.3-3.58l-2.96-2.04c-3.06-2.09-7.27-4.06-9.01-4.21-1.12-.1-1.18-.06-1.49,.15l-.71,.43c-1.06,.58-1.45,.85-1.52,.9-.51,.48-1.47,.73-2.7,.06-.44-.24-2.67-1.49-3.49-2.7-.66-.97-.75-1.16-1.24-2.25l-1.61-3.53,6.6,1.94c.7,.2,1.45,.23,2.17,.26h.35c.28,.04,.8-.14,1.35-.31l.61-.18c.05-.13,.07-.26,.07-.41,0-.36-.13-.77-.26-1.16l-.14-.43c-.17-.59-.49-1.37-.71-1.81s-.32-.78-.32-1.12c0-.42,.16-.79,.4-1.22l.3-.56c.28-.54,.69-1.33,1.17-2.08l-.14,.03s-.44,.11-.46,.11c-.51,.1-.89,.1-1.43-.22-.02-.01-.04-.02-.07-.04l-.19-.09c-.8-.37-1.7-.84-2.25-1.65-.57-.84-.96-2.09-1.17-2.75l-.04-.13c-.03-.11-.68-2.36-.18-2.75,.15-.11,.3-.23,2.43,.29l.76,.18c.71,.16,1.69,.38,2.39,.62,.81,.28,1.34,.42,1.77,.46,.34,.03,.68,.06,.78,.04,.07-.03,.52-.31,1.29-1.01,.25-.23,.5-.43,.74-.59-.52-.23-.92-.6-1.16-1.06-.23-.44-.85-1.35-1.3-2.01l-.52-.77c-.45-.68-.78-1.12-1.45-1.88l-.34-.38c-.16-.18-.29-.33-.37-.43-.32-.39-.81-.77-1.09-.99-.32-.25-.51-.4-.45-.72,.11-.64,1.94-.87,2.3-.91h0l.34-.02c.57,.02,1.81,.05,3.15,.43,.81,.23,4.32,1.47,5.35,2.89,.75,1.04,1.17,2.59,.63,3.92,1.19-.07,3.01-.18,4.54-.45,.7-.13,1.33-.25,1.89-.36-.41-.48-.73-.96-.97-1.47l-.17-.37c-.17-.37-.33-.71-.65-1.25-.44-.71-1.06-1.52-1.35-1.84-.07-.07-.17-.17-.27-.25-.5-.42-1.34-1.08-1.47-1.16-.24-.15-.36-.39-.33-.64,.05-.49,.63-.7,.82-.76,1.14-.41,2.33-.39,2.39-.39,.94,0,2.25,.06,3.05,.3,1.14,.35,2.58,.79,3.51,1.85,.87,1,.9,2.38,.92,3.2v.25c.09,.5,.06,.94,.04,1.16v.04c.43,.02,.78,.11,1.02,.21,.48,.19,.94,.42,1.35,.66,.02,.01,.05,.03,.07,.04,.33-.44,.64-.87,.91-1.28,1.47-2.21,1.77-4.38,1.83-5.22,.03-.48-.11-1.32-.2-1.75l-.5-2.17,2.17,.35c.21,.03,2.11,.35,3.29,1.27,.64,.5,1.15,.98,1.53,1.33l.37,.34c.4,.32,1.22,1.27,1.47,1.92,.2,.44,.29,.81,.29,1.16,0,.77-.41,1.43-1.18,1.91-.15,.09-.36,.26-.63,.5,.59-.05,.77-.08,1.59-.32l1.31-.33c.23-.05,.38-.09,.49-.12-.04-.17-.07-.35-.07-.54,0-1.26,.98-2.2,2.28-2.2,.29,0,.58,.04,.84,.12v-.03h5.31l-1.51-1.8,3.07-.1h0s.83-.03,1.83,.1c.85,.12,1.5,.3,2.08,.46l.2,.06c.69,.19,1.96,.64,2.81,1.03,.17,.08,.31,.16,.45,.25h4.22l.18,.24v-.24h1.33l-1.57-1.61,2.39-.7c.26-.07,1.19-.3,2.54-.32,1.46-.02,2.19,.09,2.83,.27,.22,.06,.7,.15,1.16,.23l1.44,.28c1.21,.27,1.88,.8,2.02,1.58,.01,.06,.03,.16,.05,.27h4.57c.53,0,1.12,0,1.66,.35,.62,.39,.98,1.09,.98,1.91,0,.4-.09,.77-.25,1.09,.8,.38,1.41,.93,1.84,1.66,.61,1.04,.98,2.27,1.07,2.83,.82,.27,1.59,.66,2.29,1.15l1.05-.33s-.09-.04-.13-.06c-.96-.42-1.62-.72-2.11-1.19-.38-.36-.57-.73-.71-1.03l-.2-.38c-.42-.69-.7-1.74-.73-1.86l-.32-1.22,1.14-.53c.17-.08,1.06-.46,2.36-.46h.01c.84,0,4.1-.68,6.16-1.36,3.19-1.05,7.58-2.76,8.64-3.29,1.23-.6,2.23-.92,2.34-.95l.25-.07h.25s1.43,.07,2.65,.55c.81,.31,1.66,.76,2.28,1.09,0,0,.55,.28,.55,.29,.52,.26,1.37,.68,1.65,1.64,.06,.19,.08,.39,.08,.58,0,.39-.11,.77-.32,1.14-.14,.24-.26,.55-.38,.88-.17,.46-.35,.93-.61,1.42-.44,.83-.72,1.23-.83,1.36l-.27,.34-.4,.14c-.22,.08-2.16,.75-3.66,.79-.14,0-.31,.02-.51,.03,.02,.07,.04,.13,.06,.2,.03,.13,.04,.26,.04,.39,0,.29-.07,.54-.17,.75h9.66l-4.78,4.71c.68,.28,1.37,.72,2.01,1.29,1.02,.91,1.72,1.79,2.26,2.53,.32,.43,.98,1.33,.48,2.33-.5,1-1.61,.97-1.98,.96-.55,0-2.35,.33-3.44,.68l-.09,1.23c.67,.75,1.04,1.7,1.04,2.71,0,.74-.23,1.47-.64,2.11h.49v.54c2.85-.46,4.8-.83,5.53-1.06l1.39-.42c.71-.21,1.32-.38,1.6-.56,1.13-.71,2.1-.9,2.96-.61,.86,.29,4.29,2.92,5.1,3.91,.86,1.05,2.04,2.99,2.6,4.14l-.45,.22,.45-.22c.32,.66,.92,1.88,.1,2.85-.83,.99-2.14,.56-2.69,.38-1.07-.35-1.87-.48-2.8-.63l-.58-.09c-.47-.08-.93-.02-1.47,.04-.57,.07-1.21,.14-1.95,.08l-1.81-.12c-1.32-.08-2.97-.19-3.89-.29-.47-.06-1.99-.03-4.09,.07v.95h-4.4c-.53,0-1.04-.09-1.5-.26v.26h-4.34c-1.3,.24-2.46,.52-3.45,.87-1.73,.6-3.56,1.09-4.77,1.41-.45,.12-1.39,.37-1.54,.44-.8,.37-1.66,.41-2.58,.13l-.02,1.18c-.04,1.05-.39,1.83-1.02,2.32-.67,.51-1.52,.63-2.6,.37l-.53-.12c-1.19-.27-2.43-.55-4.76-1.98-1.93-1.18-3.26-2.53-4.54-4.61h-6.52c-.65,.74-1.63,.64-3.05,.49-1.45-.15-2.3-.15-3.78-.07-1.38,.07-3.46,.65-5.31,1.19-1.89,.56-2.95,1.18-3.25,1.43-1.04,.88-2.35,.89-2.78,.89h0c-1.1,0-1.64-.87-1.93-1.34-.11-.18-.22-.37-.34-.48l-.52-.47c-.25-.21-.56-.47-.99-.96-.19-.21-.36-.43-.52-.67h-.86c-1.33,1.87-2.95,3.7-4.82,5.46-1.06,.99-1.69,1.48-2.43,1.57-.09,.01-.43,.12-.56,.18l-1.53,.55c-.38,.14-3.24,.61-4.46,.69l-1.13,.1Zm9.68-8.51l-1.04,1.28c-.52,.64-1.01,1.15-1.36,1.52-1.71,1.78-2.46,2.39-3.24,3.04-.65,.54-1.37,1.05-2.01,1.48,1.32-.16,2.99-.46,3.22-.53h0c.16-.06,.39-.14,.71-.25l.79-.28c.11-.05,.59-.22,.81-.24,.46-.05,.99-.48,1.86-1.3,1.89-1.78,3.51-3.64,4.83-5.52l.15-.21h1.92l.15,.23c.18,.29,.37,.54,.58,.78,.37,.43,.63,.64,.87,.85l.57,.52c.22,.22,.37,.47,.5,.68,.3,.49,.57,.86,1.07,.86h0c.35,0,1.38,0,2.14-.65,.47-.4,1.69-1.06,3.61-1.62,1.9-.56,4.06-1.16,5.54-1.23,1.53-.08,2.42-.08,3.93,.08,1.46,.15,1.98,.18,2.28-.27l.15-.22h7.6l.15,.24c1.24,2.07,2.5,3.38,4.35,4.52,2.19,1.34,3.35,1.6,4.46,1.85l.54,.12c.78,.19,1.35,.13,1.76-.19,.59-.45,.62-1.28,.63-1.55l.05-2.66,.7,.32c.94,.43,1.71,.48,2.45,.14,.19-.08,.7-.22,1.7-.49,1.2-.32,3-.8,4.7-1.39,1.04-.36,2.25-.66,3.69-.91l3.43-.02v-.46l.62-.06,.24,.08c.47,.29,1.03,.44,1.64,.44h3.4v-.9l.47-.02c1.43-.07,3.95-.18,4.74-.09,.89,.1,2.52,.21,3.83,.29l1.82,.12c.65,.05,1.24-.02,1.76-.08,.6-.07,1.15-.13,1.75-.03l.58,.09c.97,.15,1.81,.29,2.96,.67,.63,.21,1.27,.34,1.61-.07,.37-.44,.1-1.08-.24-1.76h0c-.54-1.1-1.66-2.96-2.48-3.95-.77-.95-4.09-3.4-4.65-3.59-.57-.19-1.26-.03-2.11,.51-.39,.25-1.04,.43-1.85,.67l-1.38,.41c-1.05,.33-3.98,.83-6.25,1.19l-.58,.09v-.71h-1.89l.98-.87c.67-.59,1.05-1.41,1.05-2.23s-.32-1.59-.91-2.17l-.16-.16,.17-2.35,.45-.14c1.02-.36,3.21-.79,3.97-.79,.41,0,.87-.03,1.06-.41,.21-.42-.07-.84-.39-1.28-.52-.7-1.17-1.52-2.12-2.37-.68-.61-1.44-1.05-2.12-1.25l-.39-.11,.07-1,3.43-3.38h-8.99l.45-.75c.06-.1,.12-.19,.18-.28,.14-.2,.3-.44,.3-.72,0-.06,0-.12-.02-.17-.04-.17-.12-.31-.28-.45l-.78-.72,1.05-.15c.6-.08,1.08-.13,1.41-.14,1.37-.04,3.27-.71,3.36-.73l.13-.05,.09-.11c.04-.06,.3-.4,.73-1.21,.23-.44,.4-.88,.54-1.26,.16-.41,.29-.76,.46-1.06,.12-.22,.19-.44,.19-.65,0-.1-.01-.2-.04-.3-.16-.54-.7-.81-1.17-1.04l-.53-.27c-.61-.32-1.44-.75-2.19-1.05-1.05-.41-2.31-.47-2.33-.47h-.08l-.08,.02c-.1,.03-1.03,.33-2.19,.89-1.09,.54-5.54,2.28-8.77,3.34-2.21,.72-5.52,1.41-6.47,1.41h-.01c-1.11,0-1.86,.33-1.94,.37l-.38,.17,.11,.41c.09,.35,.34,1.14,.63,1.62l.22,.41c.13,.27,.27,.53,.52,.77,.37,.35,.96,.62,1.82,.99,.34,.15,.87,.36,1.53,.46l.07,.97-1.95,.62,2.39,2.39v1.23l-.96,.2c-1.09-2.47-2.97-4.19-5.29-4.86l-.33-.09-.03-.34c0-.07-.01-.13-.02-.18-.07-.45-.39-1.61-.96-2.58-.41-.7-1.06-1.19-1.93-1.47l-.84-.27,.67-.58c.25-.22,.38-.54,.38-.94,0-.47-.19-.86-.52-1.07-.3-.19-.7-.19-1.13-.19h-1.13v.74l-.99,.08-.12-.81h-1l-.69,2.32-.68-2.32h-.82l-.06-.43c-.03-.19-.06-.39-.09-.52h-.02v-.14c-.08-.35-.48-.6-1.25-.78l-1.42-.28c-.49-.09-1-.18-1.24-.25-.56-.15-1.21-.26-2.55-.23-1.26,.02-2.12,.24-2.28,.28l-.8,.23,.59,.6c.12,.12,.29,.3,.49,.51h.25v.27c.51,.55,1.08,1.19,1.24,1.46l.17,.28c.16,.25,.34,.53,.5,.89l.15,.34-1.1,.97c.24,.36,.58,.56,1.01,.58l.42,.02,.05,.42c.11,.92,.3,2.53,.52,4.35l-.92,.33c-.56-.9-1.52-1.44-2.56-1.45h-.24l-.21-.28c-.54-.69-.94-1.02-1.21-1.24l-.21-.17c-.11-.1-.18-.16-.25-.21l-.5-.37,.47-.41c.29-.25,.56-.56,.72-.83l.15-.25h.79v-3.71h-.97v1.49l-.82-.33-.1-.12-.76-1.04h-4.03l-.13-.09c-.12-.09-.26-.18-.42-.25-.8-.37-2-.79-2.65-.97l-.19-.05c-.55-.15-1.17-.32-1.95-.43-.88-.12-1.64-.09-1.65-.09l-1.02,.03,.67,.8s.12,.14,.21,.27l.45,.6-.73,.19c-.36,.09-.67,.26-.91,.5-.11,.11-.21,.23-.29,.37l-.64,1.01,.64,1.01c.11,.18,.26,.34,.43,.48,.54,.43,1.24,.58,1.96,.31l.63-.24,.04,.67c.02,.28,.03,.55,.03,.79,0,.58,.03,1.58,.05,2.39v.4l-.37,.1c-.61,.16-1.22,.4-1.8,.69l-.19,.05-.88,.07-.16-.17c-.45-.47-.9-.84-1.28-1.04-.74-.4-1.2-.56-1.95-.76-.18-.05-.36-.1-.53-.13l-.72-.15,.4-.62c.25-.38,.29-.87,.11-1.37l-.23-.66h1.17v-1.51h1.35v1.51h1.01v-3.71h-1.01v1.44h-1.35v-1.44h-1.01v.74l-.78-.52c-.31-.21-.67-.31-1.07-.31-.75,0-1.28,.49-1.28,1.2,0,.21,.05,.39,.15,.53l.34,.5-.67,.29c-.32,.16-.56,.22-1,.32l-1.28,.33c-1.03,.3-1.2,.31-2.1,.38l-.72,.05c-.07,0-.14,0-.22,0l-1.42,.07,.91-.92c.56-.56,1.32-1.29,1.79-1.59,.47-.29,.71-.65,.71-1.06,0-.21-.06-.44-.17-.69l-.05-.11c-.17-.44-.86-1.26-1.19-1.52l-.4-.36c-.37-.35-.86-.81-1.47-1.28-1-.78-2.76-1.06-2.83-1.07l-.71-.11,.17,.72s.28,1.25,.23,2.04c-.06,.91-.39,3.3-1.99,5.7-.38,.57-.81,1.16-1.29,1.77l-.39,.5-.4-.49c-.08-.1-.17-.19-.27-.25-.35-.21-.76-.42-1.18-.58-.26-.1-.69-.2-1.28-.1l-1.1,.19,.59-.95c.1-.16,.13-.27,.13-.32l.02-.47c0-.17,0-.37-.04-.57l-.1-.55h.08c-.02-.7-.09-1.71-.67-2.37-.74-.85-2.02-1.24-2.95-1.52-.62-.19-1.63-.28-2.86-.29-.02,0-.97,0-1.89,.28,.38,.29,.88,.7,1.13,.9,.14,.11,.28,.24,.37,.35,.3,.33,.97,1.19,1.46,1.99,.36,.59,.54,.98,.71,1.35l.17,.36c.29,.61,.72,1.18,1.33,1.79l.66,.65-.84,.26c-.76,.16-1.68,.34-2.8,.54-1.68,.3-3.68,.41-4.88,.48l-1.89,.1,.76-.89c.86-1.01,.58-2.55-.15-3.56-.75-1.03-3.71-2.2-4.81-2.51-1.22-.35-2.38-.38-2.87-.4l-.25,.02c-.35,.04-.68,.1-.94,.17,.28,.23,.6,.52,.85,.83,.08,.1,.2,.23,.35,.4l.34,.39c.7,.8,1.05,1.27,1.53,1.99l.51,.77c.6,.89,1.11,1.66,1.35,2.1,.2,.37,.6,.64,1.13,.76,.26,.06,.55,.07,.86,.05l.4-.03,.31,1.14-.68-.04c-.19-.01-.44,.06-.72,.2h-.02c-.33,.18-.7,.45-1.07,.79-.81,.74-1.36,1.11-1.61,1.21-.27,.11-.64,.08-1.15,.03-.61-.06-1.21-.21-2.1-.53-.65-.23-1.59-.44-2.28-.59l-.77-.18c-.28-.07-.9-.2-1.36-.29,.05,.41,.15,1,.3,1.48l.04,.12c.19,.62,.55,1.77,1.04,2.5,.4,.6,1.17,.99,1.85,1.3l.58,.28h0c.14,.05,.27,.04,.48,0l3.09-.7-.75,1.06c-.22,.32-.44,.62-.61,.89-.49,.74-.91,1.57-1.2,2.12l-.32,.6c-.2,.35-.27,.55-.27,.73,0,.17,.07,.37,.21,.67,.25,.49,.6,1.33,.78,1.97l.13,.4c.16,.46,.31,.96,.31,1.47,0,.38-.09,.73-.27,1.07l-.1,.18-1.02,.3c-.66,.21-1.24,.4-1.69,.37h-.33c-.79-.04-1.61-.07-2.43-.31l-4.5-1.33,.7,1.53c.49,1.07,.55,1.2,1.16,2.1,.58,.84,2.25,1.9,3.15,2.38,.76,.42,1.29,.31,1.54,.08h0l.02-.02,.05,.05-.04-.05c.13-.11,.63-.44,1.67-1.01l.67-.41c.53-.35,.77-.42,2.12-.3,1.95,.17,6.21,2.13,9.49,4.38l2.96,2.04c2.22,1.54,4.32,2.99,5.24,3.54,1.33,.79,4.41,1.52,5.05,1.56,.59,.05,1.39-.11,1.93-.28,.18-.06,.49-.21,.67-.34-.08-.11-.12-.23-.11-.38l-.03-.29,.55-.35c.4-.27,.82-.55,1.22-.88,.44-.36,1.75-.79,3.85-1.43l2.42-.75Zm-7.5,3.71h0ZM53.15,12c.79,.21,1.34,.4,2.16,.85,.51,.28,1,.7,1.36,1.06l.31-.02c.5-.25,1.01-.45,1.53-.61-.02-.73-.04-1.53-.04-2.03,0-.04,0-.08,0-.13-.71,.1-1.42-.07-2.01-.45v.38h-3.21c.03,.33,0,.66-.09,.96Zm19.27,.8c.75,.06,1.45,.31,2.05,.74-.12-.98-.22-1.83-.3-2.47-.57-.13-1.04-.46-1.37-.97l-.13-.2v1.14h-1.24c-.1,.14-.22,.29-.35,.42l.04,.03c.29,.23,.72,.58,1.3,1.31Zm.25-5.7v1.98l.84-.76c-.08-.15-.17-.29-.26-.43l-.18-.29c-.05-.08-.19-.25-.39-.49Zm-16.22-1.7v.33c.06-.04,.12-.07,.19-.11l-.19-.22Zm33.26,30.52l-.97-.12c-.08-.91-.37-1.67-.84-2.18l-.85-.94,1.27,.11c.52,.04,1.06,.03,1.57-.04l.73-.08-.13,.71c-.23,.85-.51,1.75-.78,2.55Zm-.48-2.11s.04,.09,.06,.13c.01-.05,.03-.09,.04-.14-.03,0-.07,0-.1,0Zm8.26,.88l-.96-.19v-2.17h1.95l-.99,2.36Zm3.92-.01l-.98-2.33h1.94v2.14l-.96,.19Zm-80.69-1.81l-.5-.14c-1.63-.59-2.78-1.09-3.61-1.46l-1.12-.51,1.16-.42c.57-.21,1.12-.45,1.62-.72,.31-.17,.7-.39,1.11-.64l.5-.3,.22,.54c.11,.26,.22,.56,.33,.97l.24,.81c.17,.56,.25,.82,.25,1.05,0,.09-.01,.18-.03,.26l-.02,.06-.16,.49Zm-2.62-2.05c.48,.2,1.04,.43,1.69,.68-.02-.07-.04-.14-.07-.21l-.25-.83c-.03-.12-.07-.22-.1-.32-.23,.13-.45,.25-.64,.35-.21,.11-.43,.22-.65,.32Zm31.74,1.98l-3.89-3.83v-3.55h5.71l-.1,.58c-.34,2.05-.84,4.08-1.48,6.02l-.25,.77Zm-2.89-4.24l2.43,2.39c.45-1.47,.82-2.99,1.09-4.52h-3.53v2.13Zm-13.39,2.93l-.47-.33-2.33-2.3v-1.82l.83,.73c.23,.2,.41,.34,.57,.42,.32,.17,.67,.24,1.01,.23l.52-.02v.64c0,.39,.12,.86,.35,1.34l.12,.26-.61,.85Zm43.5-.3l-.38-.27-1.96-1.93v-3.56h2.37l.08,.41c.27,1.44,.58,2.84,.89,4.16l.07,.3-.23,.2c-.16,.14-.33,.28-.49,.41l-.35,.29Zm-1.35-2.62l1.27,1.25c-.26-1.09-.5-2.23-.73-3.4h-.54v2.14Zm-8.26,1.82l.25-1.21c.05-.23,.13-.53,.13-.83,0-.27-.07-.48-.21-.62l-.14-.15v-.76h.55c.42,.04,.81,.1,1.08,.16l.39,.09v1.9l-.98,.9-.11,.04-.95,.49Zm21.55-1.06c-.48,0-1.17-.18-1.7-1.05l-.19-.32,.25-.28c1.19-1.33,2.14-2.15,2.63-2.47l.42-.23c.13-.06,.22-.11,.3-.17l.91-.68-.11,1.13c-.26,2.71-1.1,4.08-2.5,4.08Zm-.62-1.28c.24,.25,.46,.28,.62,.28,.78,0,1.17-1.11,1.37-2.17-.42,.31-1.15,.98-1.99,1.89Zm-72.58,1.22l-.06-1.09c-.04-.7-.22-1.24-.38-1.57-.28-.6-.56-1.1-.84-1.49l-.21-.29,.2-.29c.45-.66,1.94-2.72,2.78-3.5,.68-.64,1.54-1.19,2.54-1.64,.49-.22,1.02-.5,1.11-1.02l.17-.94,1.15,1.16,1.06,1.84-.15,.25c-.52,.86-1.5,2.43-2.29,3.31-1.08,1.2-3.17,3.44-4.29,4.51l-.79,.75Zm-.26-4.44c.25,.39,.49,.83,.74,1.36,.13,.29,.24,.59,.32,.92,1.14-1.15,2.67-2.8,3.54-3.77h0c.5-.56,1.24-1.61,2.02-2.9l-.6-1.04c-.39,.51-.98,.77-1.32,.92-.9,.41-1.67,.9-2.27,1.46-.59,.55-1.73,2.05-2.44,3.06Zm7.72,4.23l-.27-.22c-.26-.21-.52-.39-.77-.52-.08-.04-.17-.08-.26-.12l-.81-.35,.71-.52c1-.73,1.79-1.41,2.34-2.01l1.34-1.49-.05,2.22-.05,.11c-.71,1.63-1.06,2.13-1.2,2.28-.24,.21-.36,.27-.54,.37l-.45,.25Zm-.17-1.39c.09,.06,.18,.12,.27,.19,.06-.04,.12-.07,.2-.14,0,0,.1-.1,.44-.79-.28,.24-.58,.49-.91,.75Zm7.51-3.08l1.6-2.87,1.49,1.46v1.4l-1.15-.03c-.41,0-.75,0-1.06,0l-.88,.03Zm1.73-1.04h.32l-.21-.2-.11,.2Zm58.3-.52c-.19-.43-.42-.75-.65-.91h0c-.22-.16-.62-.36-1.07-.6-.53-.28-1.06-.56-1.49-.83-.12-.08-.26-.13-.4-.18l-.39-.16,.17-.82,.25-.09c.87-.33,1.63-.6,2.06-.76,.19-.07,.56-.2,.77-.46l.45-.55,.37,.6c.55,.91,.85,2.44,.89,4.55l-.96,.21Zm-2.35-2.99c.34,.2,.71,.39,1.04,.57,.52,.27,.9,.47,1.18,.66-.08-.79-.22-1.44-.4-1.94-.25,.15-.5,.24-.65,.29-.28,.1-.68,.25-1.17,.42Zm-36.21,1.66h-5.97l1.62-2.92,.23-.04c.5-.09,.87-.34,1.07-.72,.09-.17,.14-.36,.14-.54,0-.13-.02-.25-.07-.36-.17-.42-.92-1.34-1.36-1.79l-.08-.08c-.23-.23-.88-.88-1.4-1.38l-.93-.89,1.28,.03c.17,0,.3,.01,.39,.03l.15,.02c.65,.11,1.59,.26,2.21,.26,.3,0,.78-.11,1.24-.29l.66-.25,.02,.7c0,.1,0,.17,.03,.25,.12,.42,.75,3.67,.84,4.53,0,.02,.06,1.15-.04,2.97l-.03,.47Zm-4.27-1h3.32c.06-1.47,.02-2.36,.02-2.37-.07-.71-.6-3.47-.76-4.19-.38,.11-.74,.16-1.03,.16-.39,0-.86-.05-1.33-.11,.15,.14,.27,.26,.34,.34l.08,.08c.39,.4,1.31,1.47,1.58,2.12,.1,.23,.15,.48,.15,.74,0,.35-.09,.7-.26,1.02-.32,.59-.87,1.01-1.52,1.17l-.57,1.04Zm-14.77-.46l1.04-1.8,.29-.28,1.17,.72-.84,.81-1.66,.56Zm47.82-2.56l-.08-.83c-.2-1.93-.3-3.64-.3-4.94,0-.36,0-.69,.02-.98l.06-1.08,2.54,2.41c.51,.47,1.25,1.09,2.04,1.7l.58,.45-.63,.38c-.53,.32-1.03,.7-1.48,1.13l-.11,.08c-.42,.22-.87,.5-1.95,1.22l-.69,.46Zm.62-5.57c0,1.03,.08,2.36,.21,3.82,.6-.39,.95-.6,1.27-.78,.32-.3,.66-.58,1.01-.83-.6-.48-1.15-.95-1.56-1.32l-.94-.89Zm-44.08,3.02l.94-.94h-.66l1.52-1.37,.28,.09c.38,.13,.72,.22,1.02,.28h.25l-.04,.04c.52,.08,1.07,.12,1.67,.09l.19,.97c-1.08,.4-2.62,.72-3.43,.79h0c-.2,.02-.36,.02-.52,.02l-1.23,.02Z"/></g></g><g id="d"><g><path class="g" d="M23.13,3.55c-.59,.21-.55,.41-.39,.51,.16,.1,1.07,.83,1.52,1.2,.12,.1,.24,.21,.32,.3,.29,.32,.93,1.14,1.4,1.91,.34,.56,.51,.92,.68,1.3l.17,.37c.32,.67,.78,1.29,1.44,1.94,.02,.02,.04,.04,.07,.06-.76,.16-1.67,.34-2.78,.54-1.65,.3-3.63,.41-4.82,.47l-.37,.02c-.13,0-.24,.01-.35,.02,1.02-1.19,.75-2.97-.12-4.17-.87-1.21-4.03-2.4-5.08-2.7-1.28-.36-2.47-.4-2.99-.42l-.34,.02h.02c-1.02,.11-1.85,.43-1.86,.51-.01,.06,.89,.64,1.44,1.31,.13,.16,.4,.45,.7,.8h0c.68,.78,1.03,1.23,1.49,1.93l.52,.77c.48,.72,1.08,1.61,1.33,2.06,.27,.51,.79,.86,1.47,1.01,.33,.07,.67,.09,1.01,.06,0,.02,.01,.05,.02,.07-.71-.04-1.54,.54-2.18,1.12-.82,.75-1.31,1.06-1.46,1.11-.16,.07-.52,.03-.93,0h-.07c-.47-.05-1.04-.2-1.89-.5-.66-.23-1.59-.44-2.34-.61l-.77-.18c-.39-.1-1.95-.42-2-.38-.05,.04,.09,1.3,.35,2.2l.04,.12c.2,.65,.57,1.84,1.11,2.63,.48,.7,1.31,1.13,2.05,1.47l.19,.09,.1,.06c.41,.24,.66,.24,1.08,.16,.02,0,.45-.11,.45-.11,0,0,1.28-.29,1.38-.31-.23,.32-.45,.64-.62,.9-.5,.77-.94,1.61-1.23,2.17l-.21,.4-.1,.17c-.22,.38-.34,.67-.34,.98,0,.26,.09,.53,.27,.89,.24,.47,.57,1.27,.74,1.88l.13,.42c.16,.47,.29,.9,.29,1.32,0,.28-.06,.55-.21,.83-.36,.11-.82,.24-.82,.24-.62,.2-1.16,.37-1.53,.35h-.34c-.76-.04-1.54-.07-2.3-.29l-5.55-1.63,1.15,2.53c.49,1.08,.57,1.24,1.2,2.17,.78,1.14,3.06,2.4,3.32,2.54,1.02,.56,1.79,.35,2.16-.03l-.03,.03c.08-.07,.54-.38,1.59-.95l.69-.42c.41-.27,.52-.34,1.81-.23,1.84,.16,6.08,2.13,9.26,4.3l2.96,2.04c2.33,1.61,4.35,3.01,5.27,3.56,1.42,.84,4.58,1.59,5.27,1.63,.71,.05,1.58-.13,2.11-.3,.17-.05,.99-.39,1.14-.78,.04-.11-.12-.24-.21-.33-.03-.02-.01-.07-.02-.11,.11-.08,.24-.16,.35-.24,.35-.24,.79-.53,1.21-.87,.45-.36,2.48-.98,3.68-1.34,1.33-.4,2.1-.64,2.51-.88,.32-.18,.93-.54,.93-1.16,0-.1-.02-.21-.05-.33-.26-.83,.36-.88-1.62-.65l-.55,.02c-1.02,.1-4.8,0-6.63-.18-.9-.09-1.99-.25-3.46-.66,.06-.03,.12-.07,.17-.1,.66-.4,2.67-1.95,3.39-2.91,.7-.94,2.22-4.6,2.22-6.2,0-.05,0-.13,0-.22,1.13,.1,1.98,.18,2.52,.25,1.54,.21,2.83,.12,2.88,.12,0,0-.68-3.17-.92-3.53-.12-.19-.19-.66-.19-.92,0-.04,0-.07,0-.1,.04-.11,.06-.22,.06-.34,0-.19-.05-.38-.15-.56-.35-.62-1.35-.93-1.81-.93-.29,0-.56,.08-.96,.21-.2,.06-.44,.13-.74,.22,.05-.31,.08-.65,.08-.97,0-.21-.01-.41-.03-.59,.82-.48,2.16-1.2,2.47-1.32,.42-.17,3.64-1.11,4.14-1.19,.59-.1,1.09-.45,1.36-.96,.13-.25,.2-.52,.2-.78,0-.19-.04-.38-.11-.55-.22-.55-1.08-1.56-1.46-1.95-.01-.01-.84-.85-1.49-1.47,.14,0,.25,0,.32,.02l.14,.02c.65,.11,1.63,.27,2.29,.27,.83,0,2.49-.59,3.07-1.4,.6-.85,.39-2.08-.52-3.01-.39-.4-.65-.56-.86-.69l-.25-.17c-.7-.59-1.41-.66-2.28-.21-.23,.12-.42,.16-.86,.27l-1.29,.33c-1,.29-1.13,.3-2.01,.36l-.72,.05c-.11,0-.22,0-.33,.01,.74-.75,1.36-1.3,1.7-1.51,.47-.29,.94-.77,.94-1.49,0-.26-.06-.56-.22-.9l-.04-.08c-.21-.54-.96-1.42-1.34-1.73l-.37-.34c-.37-.34-.87-.81-1.5-1.3-1.07-.83-2.86-1.13-3.06-1.17l-1.44-.23,.33,1.45c.07,.32,.26,1.3,.21,1.9-.06,.87-.37,3.15-1.91,5.46-.4,.6-.83,1.18-1.26,1.74-.11-.14-.24-.26-.4-.36-.37-.23-.81-.45-1.26-.62-.3-.12-.84-.25-1.55-.12,.12-.19,.2-.38,.2-.57v-.06c.02-.22,.05-.63-.03-1.08v-.28c-.02-.75-.05-2.02-.8-2.88-.83-.96-2.19-1.37-3.19-1.68l-.09-.03c-.78-.24-2.15-.28-2.91-.28,0,0-1.14-.02-2.21,.36Zm-1.64,14.65c0-.74-.78-1.83-1.26-2.4,.48,.25,.88,.39,1,.44,.53,.19,.96,.1,1.3,.03l.29-.06c.26-.04,.3-.04,.6-.01l.35,.02c.21,.01,.48,.02,.77,.03-.04,.44-.45,1.54-.6,1.91l-.16,.44h0c-.18,.46-2.05,3.74-3.25,5.07-1.05,1.17-3.15,3.41-4.27,4.48-.04-.71-.21-1.3-.42-1.75-.38-.82-.69-1.3-.89-1.57,.6-.86,1.98-2.74,2.71-3.42,.64-.6,1.45-1.12,2.41-1.55,.5-.23,1.43-.64,1.43-1.64Zm13.19,2.2s.25,.25,.54,.76l.15,.25c.25,.42,.27,.46,.27,.97,0,.41-.02,1-.1,1.72-.78-.01-1.78-.03-1.78-.03l-1.2-.03c-.63-.01-1.15,0-1.56,.03l.53-1.19c.39-.92,.65-1.53,.96-1.77,.33-.25,1.08-.84,1.08-1.73,0-.03,0-.05,0-.08-.05-.95-.91-1.49-1.19-1.67-.08-.05-.17-.1-.26-.15,.13-.04,.25-.08,.35-.12l.07-.03s.13-.05,.25-.09c.15,.23,.35,.44,.52,.62l.14,.14c.35,.37,.79,.67,1.24,.94-.02,.02-.06,.04-.08,.06l-.63,.72,.69,.68Zm-9.68,5.54c-.76,1.75-1.07,2.1-1.11,2.15-.17,.14-.26,.19-.41,.27,0,0-.08,.04-.16,.09-.24-.2-.53-.41-.85-.58-.09-.05-.19-.09-.29-.14,.9-.66,1.77-1.37,2.41-2.08,.43-.48,.83-.92,1.19-1.33-.14,.29-.77,1.61-.77,1.61Zm-4.57,6.1s0,.09-.02,.13c0,.02-.02,.05-.02,.07-1.68-.61-2.83-1.12-3.57-1.45,.49-.18,1.07-.42,1.69-.75,.32-.17,.71-.39,1.13-.65,.1,.24,.21,.53,.32,.91l.25,.82c.16,.52,.23,.75,.23,.91Zm7.78-1.07c.07-.17,.14-.33,.2-.5,.27,.74,1.02,2.79,1.34,3.45,.3,.61,.64,1.64,.92,2.46l.08,.24c.02,.07,.05,.14,.07,.2-1.26-.53-2.75-1.22-4.2-1.89-.41-.19-.82-.38-1.24-.57,.76-.41,1.92-1.25,2.82-3.4Zm4.95,.21c-.66-.45-1.57-1.05-1.57-1.05-.9-.63-1.87-1.12-1.92-1.14l-.58-.29c.07-.19,.14-.38,.21-.55,.18-.49,.35-.94,.54-1.41,.06,.06,.12,.12,.18,.18l.34,.35c.63,.65,1.11,1.13,1.58,1.37,.66,.34,1.35,.39,1.95,.15h0c.08-.03,.34-.05,.54-.07h.06c-.15,.41-.32,.82-.51,1.23-.23,.49-.54,.92-.81,1.25Zm4.95-16.58c-.07,0-.13,0-.2,0,.48-.39,.96-.81,1.4-1.21,.37,.12,.73,.23,1.1,.29,.62,.12,1.26,.16,1.98,.14-1.01,.37-2.49,.69-3.3,.76-.4,.04-.68,.03-.98,.02Z"/><path class="g" d="M94.37,32.36v-.47l-.2-2.4c-.19-2.2-.6-3.66-.79-3.68-.09,0-.7,1.75-1.02,2.74-.19,.59-.43,1.12-.58,1.49-.49-.01-1.31,1.32-1.53,2.26-.36,1.54-1.04,3.69-1.51,4.78,0,0-.25,.62-.26,.63-.83-.8-2.56-3.24-3.95-6.26,.99-.9,1.81-1.84,2.55-2.69l.48-.55c1.23-1.4,2.23-2.27,2.72-2.59l.38-.21c.56-.26,.84-.64,.84-1.14,0-.11-.01-.23-.04-.35-.09-.38-.43-1.67-1.19-2.2-.25-.17-.63-.38-1.12-.63-.48-.25-1.02-.53-1.46-.81-.19-.12-.41-.22-.64-.3,.95-.36,1.77-.66,2.23-.82,.33-.12,1-.35,1.21-1.01,.04-.13,.06-.26,.06-.38,0-.42-.22-.74-.35-.94l-.11-.17c-.31-.53-.73-.78-1.09-.91,.32-.15,.73-.36,.98-.54l.03-.02c.23-.17,.26-.19,.35-.21,1.13-.31,.97-1.25,.92-1.6v-.07c-.08-.43-.42-1.64-1.02-2.68-.85-1.45-2.37-1.76-2.87-1.86-.99-.2-2.22-.31-3.38-.31-1.07,0-2.38,.26-2.93,.37,.01-.15,.03-.26,.08-.52l.1-.52c.15-.78,.23-1.2,.23-1.5,0-.36-.12-.94-.15-1.11,0,0,.01,.12,.02,.18-.03-.99-1.24-1.26-1.64-1.35l-1.43-.28c-.48-.09-.97-.18-1.2-.24-.6-.17-1.29-.27-2.69-.25-1.43,.02-2.37,.29-2.41,.3l-1.6,.47,1.17,1.2c.78,.8,1.74,1.86,1.92,2.15l.18,.29c.35,.55,.75,1.17,.91,2.63,.15,1.34,.65,5.45,1.11,9.05-.25,.07-.5,.12-.71,.17-1.18,.23-2.85,.22-3.28,.21-.16-.41-.35-.71-.67-1l-.06-.05s-.06-.05-.08-.07c.45,.09,.79,.15,1.07,.17,.44,.02,.82-.14,1.08-.47,.44-.54,.33-1.25,.22-1.74-.12-.53-.1-.74-.09-.89,.08-.75-.53-1.71-1.06-2.4-.58-.75-1.02-1.1-1.31-1.33l-.19-.16-.02-.02c-.08-.08-.17-.14-.25-.21,.31-.27,.65-.64,.86-1,.16-.29,.28-.63,.37-.9l.07-.2,.02-.05c.13-.29,.18-.54,.18-.76,0-.72-.57-1.06-.72-1.13-.35-.18-1.86-.74-2.56-.74-.61,0-1.59,.29-2.49,.71v-.02c0-.47-.28-1.33-1.41-1.85-.82-.38-2.05-.82-2.73-1l-.19-.05c-.56-.16-1.2-.33-2.02-.44-.91-.12-1.71-.1-1.74-.1l-2.04,.07,1.33,1.58s.82,.98,1.17,1.9c.33,.88,.54,2.63,.54,3.76,0,.7,.04,2.02,.07,2.87-.25,.06-.53,.11-.8,.15-.49,.07-1.26,.13-1.76,.16-.33-.35-.86-.84-1.4-1.14-.78-.42-1.29-.6-2.06-.81-.73-.2-1.42-.38-1.94,.16-.14,.15-.44,.56-.25,1.22,.11,.38,.74,3.61,.82,4.44,0,.06,.37,6.79-2.26,14.29-2.48,7.09-4.62,9.31-6.04,10.78-1.68,1.74-2.42,2.35-3.2,3-1.69,1.4-3.76,2.56-3.76,2.56l1.14-.1c1.29-.08,4.09-.57,4.32-.66l.71-.25,.79-.29c.14-.06,.55-.2,.7-.22,.6-.07,1.17-.52,2.15-1.44,2.14-2.02,3.93-4.09,5.31-6.17,.13-.19,.26-.41,.4-.65,.24,.74,.63,1.4,1.2,2.06,.4,.47,.69,.7,.94,.91l.54,.49c.16,.16,.29,.37,.41,.57,.27,.44,.68,1.1,1.5,1.1,.38,0,1.56,0,2.47-.77,.35-.29,1.46-.95,3.43-1.53,1.87-.55,4-1.14,5.43-1.21,1.51-.08,2.38-.08,3.86,.07,1.47,.16,2.27,.24,2.75-.49,.11-.17,.16-.37,.16-.6,0-1.09-1.14-2.6-1.15-2.62-.08-.11-.17-.2-.26-.3,.99-.15,2.38-.47,3.27-.85l.48-.2c.56-.23,1.27-.53,2.03-.88,.35,1.02,.69,1.9,1.04,2.64,1.89,4.02,3.4,5.91,5.99,7.5,2.26,1.39,3.46,1.66,4.61,1.92l.53,.12c.92,.23,1.64,.14,2.17-.28,.77-.59,.82-1.6,.83-1.93l.03-1.9c.01-1.33,.03-3.14,.11-3.72,.15-1.09,.14-5.03,.09-6.93Zm-37.29-6.2c.01-.06,.03-.11,.04-.17,.12-.58,.24-1.27,.34-2,.24-.02,.29-.03,.59-.06-.03,.24-.05,.5-.05,.78,0,.52,.07,1.06,.27,1.5-.23-.04-.43-.06-.6-.07-.14,0-.35-.02-.58,.02Zm-.51,1.83s.05,.06,.08,.09l.11,.12v-.02l.32,.5c.23,.3,.54,.72,.84,1.46l.27,.63c.15,.35,.3,.7,.44,1.08-.29-.31-.66-.56-1.12-.76-.39-.17-.72-.26-.99-.33-.12-.03-.27-.07-.33-.1-.14-.14-.29-.23-.42-.3,.31-.85,.58-1.66,.81-2.38Zm16.2,2.7c-.55-.97-2.29-1.5-2.31-1.51-.58-.16-1.18-.03-1.62,.06l-.16,.03c-.21,.04-.38,.11-.54,.19,.02-.1,.04-.19,.04-.19,.05-.22,.14-.57,.14-.93s-.09-.76-.41-1.04c.6,.06,1.14,.15,1.33,.23h-.02c.55,.32,1.2,.24,1.62-.21,.24-.25,.41-.64,.41-1.14s-.17-1.14-.62-1.86l-.21-.34c-.16-.26-.3-.49-.43-.69,.34,.03,.61,.06,.8,.06h.07c.21,0,.68,.01,1.05-.37,.26,.17,.58,.35,.99,.56,.75,.39,1.58,.41,3.37,.12,.31,1.98,.77,4.29,1.29,6.43-1.05,.91-2.09,1.7-3.04,2.29-.87,.54-1.62,1-2.24,1.37,.14-.24,.25-.46,.32-.6,.18-.36,.4-.93,.4-1.52,0-.33-.07-.66-.24-.97Zm9.19-8.65c.62-.23,1.18-.45,1.67-.66,.02,.07,.03,.16,.03,.28,0,.16-.03,.4-.15,.74v.03c-.14,.38-.32,.92-1.1,2.14-.16-.81-.32-1.66-.46-2.54Zm-.73-10.84l1.51,1.43c.75,.7,1.85,1.57,2.61,2.13-.46,.04-.93,.16-1.36,.4l-.49,.27c-.49,.26-.87,.46-2.24,1.38-.19-1.9-.3-3.61-.3-4.89,0-.35,0-.67,.02-.95l.24,.23Zm-27.18,23.55c.02,.09,.05,.19,.08,.28v.04c.27,.94,.74,1.7,1.38,2.21-.36-.02-.72-.05-1.05-.07l-1.19-.08c-.09,0-.19,0-.29,0,.36-.74,.72-1.54,1.07-2.37Z"/><path class="g" d="M135.98,37.89c-.55-1.13-1.71-3.03-2.54-4.05-.79-.97-4.17-3.51-4.88-3.75-.72-.24-1.55-.06-2.54,.56-.33,.21-.95,.39-1.72,.61l-1.38,.42c-.99,.32-4.02,.86-8.35,1.51-.29-.76-.61-1.69-.83-2.6-.23-.93-.6-2.61-.99-4.54,1.31-.25,2.69-.55,3.35-.78,1.05-.37,3.11-.78,3.79-.77,.32,0,1.16,.03,1.52-.69,.36-.73-.14-1.4-.43-1.81-.53-.72-1.2-1.57-2.19-2.45-1.1-.98-2.31-1.54-3.22-1.5-.68,.03-2.39,.17-4.13,.75-.01-.08-.04-.26-.04-.26-.29-1.94-.4-2.91-.4-3.5,0-.52,.08-.75,.2-1.09,.07-.2,.18-.36,.29-.52,.16-.23,.4-.57,.4-1.01,0-.09,0-.18-.03-.28-.07-.31-.23-.53-.43-.71,.56-.08,1.03-.13,1.35-.14,1.46-.04,3.42-.73,3.51-.76l.26-.09,.18-.22c.05-.06,.32-.42,.78-1.28,.24-.46,.42-.92,.57-1.32,.14-.37,.27-.71,.43-.99,.19-.34,.25-.64,.25-.9,0-.17-.03-.32-.06-.44-.22-.75-.92-1.1-1.43-1.35,0,0-.52-.27-.52-.27-.61-.32-1.46-.76-2.24-1.07-1.11-.43-2.43-.5-2.49-.5h-.17l-.16,.04s-1.03,.32-2.26,.92c-1.08,.53-5.49,2.26-8.7,3.31-2.13,.7-5.42,1.38-6.31,1.38-1.23,0-2.07,.37-2.16,.41l-.76,.35,.22,.82c.03,.11,.3,1.11,.68,1.75l.21,.39c.14,.28,.3,.59,.61,.9,.42,.4,1.05,.69,1.97,1.09,.98,.43,2.25,.81,4.26,.42,0,0,2.03-.38,2.58-.49,.26,.83,.62,2.08,.99,3.84,.24,1.13,.54,2.47,.89,3.97-2.33,.58-5.13,1.08-6.34,1.22-.87,.1-2.24,0-3.07-.07l-.85-.05c-.61,0-1.62,0-1.82,.93-.19,.9,.69,1.29,1.16,1.5l.19,.09q.07,.04,.16,.21l.06,.11,.05,.13c.09,.27,.24,.66,.68,1.1,.53,.51,1.3,.75,2.46,1.11l.31,.1c1.74,.54,9.7,5.6,9.85,6.76,0,0,0,.05,0,.11-2.02,.4-4.1,.84-6.29,1.31l-2.06,.45c-4.29,.92-5.67,.57-5.69,.56h.03l-.62-.19-.44,.49c-.51,.61-1.2,1.96-.54,3.17,.59,1.08,1.62,2.05,2.84,2.67,1.15,.59,2.12,.66,3.06,.22,.17-.08,.94-.28,1.62-.46,1.29-.34,3.05-.82,4.74-1.4,2.6-.9,5.87-1.27,8.43-1.49,2.51-.22,8.42-.55,9.58-.41,.88,.1,2.46,.2,3.86,.29l1.82,.12c.7,.05,1.31-.02,1.86-.08,.58-.07,1.08-.12,1.61-.04l.58,.09c.95,.15,1.77,.28,2.88,.65,.5,.16,1.54,.51,2.15-.22,.61-.72,.14-1.68-.17-2.31Z"/></g><path class="f" d="M65.49,21.52s-2.19-4.49-4.08-4.45c-1.89,.04-3.56,2.67-3.78,5.31-.22,2.63,1.11,7.53,2.97,7.46,1.85-.07,2.04-.67,2.04-.67l-.15-3.12-.11-1.22-3.08-2.89,6.2-.41Z"/><g><g><path class="f" d="M51.2,10.06c-.5-.52-.67-.49-1.03-.79-.36-.3-.63-.39-1.22-.09-.59,.3-.99,.28-2.32,.66-1.33,.39-1.34,.32-2.93,.45-1.01,.08-2.07,.05-2.72,.02,.09-.1,.18-.19,.26-.28,1.06-1.17,2.48-2.62,3.24-3.09,.76-.48,.42-.91,.29-1.24-.13-.33-.74-1.07-1.04-1.31-.3-.24-.95-.93-1.86-1.63-.9-.7-2.62-.97-2.62-.97,0,0,.3,1.31,.24,2.2-.05,.72-.32,3.31-2.08,5.95-1.76,2.64-4.03,4.98-5.05,5.87-1.02,.89-.93,.84-.17,.56,.76-.28,2.34-.78,3.86-1.69,.83-.49,1.97-1.47,3.02-2.45,.36,.14,.88,.33,1.51,.45,1.03,.19,2.06,.15,3.2,0,1.14-.15,2.71-.27,3.28-.17,.57,.09,1.64,.28,2.27,.28s1.94-.52,2.27-.99c.34-.47,.08-1.2-.42-1.72Z"/><path class="f" d="M12.52,6.81c.7,.8,1.07,1.29,1.57,2.04,.49,.75,1.52,2.22,1.89,2.91,.37,.69,1.95,.82,3.03-.02,1.08-.84,.68-2.38,.09-3.18-.58-.81-3.16-1.94-4.56-2.33-1.43-.41-2.77-.4-2.98-.39-.32,.01,.25,.18,.95,.98Z"/><path class="f" d="M45.13,40.1c-1.11,.11-4.95,0-6.81-.18-1.86-.18-3.91-.62-7.03-1.87-2.56-1.02-6.46-2.95-9.31-4.16,.47,.04,.97,.07,1.24,.08,.59,.02,.58,.15,1.05-.18,.47-.32,1.94-.59,3.05-3.27,1.12-2.68,1.41-3.93,2.49-6.21,1.08-2.28,1.34-3.46,2.09-4.05,.76-.59,1.09-1.12-.04-1.83-1.12-.71-1.77-1.14-1.77-1.14,0,0,.06-.62-.59-1.43-.22-.28-.5-.62-.78-.94,1.31-.22,2.82-.52,3.62-.69,1.28-.26,1.52-.41,1.62-.58,.09-.17,.37-.82,.44-1.01,.07-.19,.05-.24,.22-.34,.17-.09,.17-.51-.17-.71-.33-.21-.72-.39-1.1-.54-.39-.15-1.03-.2-1.9,.21-.87,.42-3.82,1-5.72,1.34-1.89,.34-4.17,.44-5.3,.51-1.13,.07-1.58,.03-1.8,0-.25-.04,.15,.41,.88,1.01,.73,.6,1.67,.99,2.04,1.12,.37,.13,.64,0,1.12-.07,.48-.07,.55-.04,1.16,0,.35,.02,.88,.03,1.49,.03,.09,.27,.17,.56,.2,.81,.06,.71-.64,2.34-.82,2.86-.18,.52-2.17,3.99-3.45,5.41-1.21,1.35-4.03,4.36-4.91,5.07-.88,.71-1.02,.81-1.02,.81,0,0,1.29-.27,2.74-1.05,1.45-.78,4.33-2.56,5.81-4.19,1.48-1.62,2.84-3.14,2.99-4.13,.15-.99,.31-1.59,.31-1.59,0,0,.34,.25,.66,.6,.32,.35,.7,.52,.43,1.42-.27,.92-1.92,4.06-2.36,5.06-.43,1-.99,2.18-1.37,2.5-.38,.32-.56,.36-.87,.55-.31,.19-.45,.31-.45,.31,0,0-.52-.6-1.19-.95-.68-.35-1.89-.6-1.89-.6,0,0,.41,.6,.77,1.87,.36,1.26,.62,1.75,.46,2.39-.1,.39-.26,.82-.38,1.11-.25-.1-.49-.19-.71-.27-2.76-.99-4.16-1.72-4.73-1.94-.23-.09-.59-.19-1.03-.27,.04-.07,.07-.14,.11-.21,.85-1.65,.79-3,.32-4.02-.48-1.03-.83-1.45-.95-1.62-.24-.32-.32-.24-.08-.62,.34-.53,2.12-3.02,3.07-3.92,.95-.89,2.01-1.43,2.67-1.73,.66-.3,.85-.49,.85-.73,0-.38-.77-1.54-1.24-2-.48-.46-1.46-1.62-1.63-1.77-.17-.14-.87,.23-1.55,.85-.68,.62-1.35,1.13-1.75,1.3-.4,.16-.85,.11-1.46,.05-.61-.06-1.27-.24-2.12-.54-.85-.3-2.25-.57-3.02-.76-.77-.19-.67-.04-.45,.68,.19,.59,.53,1.7,.98,2.36,.45,.67,1.62,1.1,1.91,1.26,.29,.16,.22,.17,.53,.11,.31-.06,.92-.25,1.88-.43,.96-.18,1.77-.33,2.17-.52,.4-.19,.37-.14,.21,.09-.16,.23-1.43,1.9-2.06,2.88-.64,.97-1.18,2.11-1.4,2.51-.36,.64-.4,.6-.15,1.09,.25,.49,.61,1.36,.81,2.07,.21,.76,.98,2.23-.1,3.69h0c-1.21,.32-2.2,.78-3.01,.74-.86-.04-1.86-.04-2.87-.33-1-.29-3.48-1.02-3.48-1.02,.72,1.58,.69,1.57,1.36,2.56,.57,.84,2.44,1.94,2.98,2.23,.54,.29,.9,.26,1,.15,.11-.11,.65-.48,1.79-1.1,1.15-.62,.93-.95,3.05-.77,2.12,.18,6.56,2.31,9.72,4.46,3.16,2.16,6.89,4.79,8.18,5.56,1.29,.77,4.3,1.46,4.84,1.5,.54,.04,1.29-.11,1.76-.26,.47-.15,.11-.22,.07-.51-.04-.29,1.08-.84,2.08-1.65,1-.81,5.49-1.83,6.31-2.31,.82-.48,.39-.36-.72-.26Z"/><path class="f" d="M25.3,4.83c.34,.38,1.03,1.27,1.51,2.06,.49,.79,.66,1.24,.9,1.76,.25,.51,.61,1.04,1.24,1.65,.63,.62,1.21,.2,1.38,.09,.17-.12,1.04-.86,1.04-1,0-.14,.05-.53-.01-.92-.07-.39,.1-1.9-.57-2.67-.67-.77-1.92-1.13-2.82-1.41-.94-.29-3.13-.24-3.13-.24-.52,.11,.04,.22,.46,.69Z"/><path class="f" d="M47.4,15.63c-.43-.43-1.81-1.8-2.06-1.99-.25-.18-.68,0-1.67,.63-.98,.62-3.4,1.17-4.49,1.26-1.09,.1-1.46-.09-2.5,.12-1.04,.22-1.86,.68-2.71,.65-.85-.03-.27,.47,.19,.95,.46,.48-.87,2.04-.24,2.39,.62,.35,2.74-1.11,3.22-1.33,.48-.22,1.37-.52,1.94-.75,.85-.35,1.88-.47,2.5-.66,.62-.19,.58-.05,.29,.22-.29,.27-1.01,1.17-2.31,2.46-.31,.31-.57,.58-.79,.82-.43-.17-.94-.39-1.48-.57-.78-.25-1.94-.2-1.94-.2,0,0,.33,.31,.72,.99,.38,.66,.55,.82,.55,1.72,0,.68-.05,1.62-.22,2.73-1.65,0-3.07-2.7-3.91-2.72-1.52-.03-2.3,2.76-2.3,2.76-.89,.14-.53,.23-.29,.32,.24,.09,.57,.47,1.04,.95,.46,.48,0,2.8,.39,3,.39,.2,2.5,2.37,2.86,2.23,.36-.14,.38-3.93,1.19-4.1,.17-.03,.34-.05,.52-.06-.29,1.07-.61,1.97-1.03,2.86-.57,1.2-1.53,2.12-1.53,2.12,0,0-1.41-.93-2.27-1.53-.86-.6-1.8-1.08-1.8-1.08,0,0,1.03,2.86,1.39,3.59,.36,.74,.75,1.92,1.05,2.83,.31,.9,1.08,1.89,1.08,1.89,0,0,1.25-.48,1.86-.85,.61-.37,2.49-1.84,3.1-2.66,.61-.82,2.02-4.27,2.02-5.6,0-.32,.03-.78,.08-1.3,1.22,.1,2.69,.22,3.55,.34,1.47,.2,2.69,.11,2.69,.11,0,0-1.3-1.41-1.67-1.98-.37-.57-.41-1.67-.3-1.87,.11-.2-.67-.54-.97-.54s-.8,.25-2.33,.62c-.21,.05-.4,.1-.57,.14,.09-.62,.17-1.11,.21-1.33,.14-.71,.08-1.61,0-1.87-.02-.05-.05-.1-.1-.16l.03-.02c.5-.34,2.75-1.58,3.23-1.77,.48-.19,3.77-1.15,4.33-1.25,.56-.1,.85-.6,.72-.92-.13-.33-.82-1.19-1.25-1.63Z"/></g><g><path class="f" d="M56.57,23.03c.52-.05,1.52-.15,2.66-.26-.04,.28-.09,.55-.15,.78-.21,.79-.17,2.06,.17,2.41,.34,.35,1.29,.88,2.28,.61,.99-.26,4.3-.39,4.99-.39s2.67,.13,3.18,.44c.52,.31,.9-.48,.09-1.8-.82-1.32-1.03-1.71-1.38-1.8-.34-.09-.34-.17-2.36,.35-2.02,.53-4.6,1.27-4.9,1.14-.3-.13-.43-.17-.09-1.32,.06-.21,.12-.42,.17-.62,1.53-.14,2.95-.27,3.52-.31,1.46-.09,3.61-.18,4.13-.13,.52,.04,1.5,.18,1.89,.18s.67,.12,.34-1.1c-.32-1.21-.43-1.53-.77-1.84-.34-.31-.69-.7-1.68-.4-.99,.31-3.52,.66-5.85,1.05-.42,.07-.77,.13-1.07,.19,.21-.9,.28-1.2-.48-1.5-.54-.22-.85-.36-1.17-.47,1.19-.11,2.41-.25,3.09-.39,1.55-.33,3.94-.62,4.74-.53,.8,.1,1.64-.1,2.39,.05,.75,.14,1.31,.27,1.64,.29,.33,.02,.47-.26,.3-.98-.17-.71-.13-1.05-.11-1.25,.02-.19-.17-.77-.85-1.66-.69-.89-1.1-1.1-1.4-1.38-.29-.28-.5-.51-1.46,.02-.96,.53-2.12,.89-3.19,1.23-1.06,.34-1.79,.63-1.79,.63,0,0-.04-.6,.25-2.01,.52-.21,1.31-.49,1.8-.54,.79-.08,1.46-.25,2.29-.3,.83-.04,1.37-.38,1.67-.59,.29-.21,.67-.59,.83-.89,.17-.3,.29-.76,.38-.98,.08-.21,.29-.51-.04-.68-.33-.17-1.67-.64-2.12-.64s-1.54,.3-2.54,.85c-.49,.27-1.13,.49-1.65,.65,.05-.23,.11-.43,.18-.58,.27-.58,.53-1.17,.53-1.23,0-.06-.05-.57-.84-.94-.8-.37-1.98-.79-2.58-.95-.59-.16-1.24-.36-2.08-.47-.84-.12-1.58-.09-1.58-.09,0,0,.92,1.09,1.34,2.19,.42,1.1,.61,3.05,.61,4.12s.09,3.64,.09,3.64c0,0-.89,.27-1.68,.37-.79,.11-2.29,.2-2.29,.2,0,0-.75-.9-1.46-1.28-.71-.38-1.15-.53-1.85-.72-.71-.19-1.12-.3-1,.13,.13,.43,.77,3.74,.85,4.63,.08,.89,.18,7.6-2.31,14.72-2.49,7.13-4.69,9.51-6.27,11.14-1.68,1.74-2.34,2.27-3.27,2.94-.84,.6-1.15,.73-1.15,.73,0,0,1.65-.41,1.87-.49,.21-.08,1.36-.47,1.47-.52,.12-.05,.66-.25,.97-.29,.31-.04,.8-.43,1.6-1.18,.8-.75,3.19-3.03,5.16-5.99,1.87-2.81,4.85-10.52,5.49-13.49,.18-.84,.32-1.78,.43-2.71Zm1.98-4.64c.27,.35,.69,1.02,.74,1.92,0,.14,.01,.28,.02,.42-.23,.05-.49,.1-.79,.15-.7,.13-1.29,.22-1.77,.29,.12-1.52,.16-2.68,.16-2.68,.13,0,.79-.04,1.63-.1Z"/><path class="f" d="M54.78,32.18c-.21,.86,0,1.61,.26,2.57,.26,.96,.83,1.77,1.76,2.1,.93,.34,1.08,.2,1.13-.17,.05-.38,.32-1.13,.32-1.61,0-.43,.21-1.39,.05-1.87-.16-.48-.47-.91-1.21-1.23-.74-.32-1.28-.29-1.58-.59-.42-.43-.52-.05-.74,.8Z"/><path class="f" d="M70.86,36.57c-.85-.38,.16-.84-.69-.65-.09,.02-.91-.14-1.01-.12,.79-.55,.91-.72,1.56-1.51,.35-.43,.81-1.23,.99-1.61,.18-.37,.44-1.09,.18-1.53-.26-.45-1.32-.94-1.72-1.05-.4-.11-.92,.03-1.32,.11-.92,.19-.07,.56,.07,.75,.15,.19-.04,1.72-.59,3.14-.31,.81-.87,1.8-1.28,2.51-.3,.06-.64,.13-1,.2,.17-.9,.42-2.32,.6-3.61,.29-2.1,.33-2.99,.44-3.67,.11-.67,.44-1.42,.07-1.57-.37-.15-1.54-.6-2.31-.67-.77-.08-1.91-.41-1.43,.45,.19,.34,.66,1.98,.66,2.69s.9,1.02,.79,1.93c-.07,.6-1.85,0-2.4,.13,.06-1.02-.13-2.78-.13-3.05s-.84-1.34-1.52-1.61c-.68-.27-2.47-.7-3.25-.75-.79-.05-.19,.16,.03,.58,.18,.34,.71,.81,1.2,2.04,.5,1.23,1.23,2.52,1.36,4.95,.06,1.21,.03,2.48-.02,3.44-.52,.08-1.04,.15-1.58,.18-1.79,.11-4.02-.14-5.38-.21-.72-.04-.6,.05-.44,.6,.16,.54,.43,1.15,1.05,1.85,.62,.71,.87,.77,1.45,1.36,.58,.59,.75,1.38,1.22,1.38,.47,0,1.26-.04,1.84-.54,.58-.49,1.94-1.18,3.79-1.72,1.84-.54,4.09-1.17,5.65-1.25,1.56-.08,2.48-.08,4,.08,1.52,.16,1.73,.11,1.84-.05,.1-.16-.53-1.5-.95-2.04-.42-.54-.92-.81-1.77-1.19Z"/><path class="f" d="M93.36,32.34c-.05-1.99-.09-5.03-.39-3.47-.3,1.55-.82,2.92-1.03,3.77-.22,.85-.38,1.36-.34,0,.05-1.36-.03-1.84-.43-.15-.38,1.64,2.22-2.38,1.73-1.25-.61,1.4-8.33,2.88-9.81-.55,1.44-1.2,2.76-2.12,3.71-3.19,1.23-1.39,2.31-2.36,2.91-2.76,.6-.4,.84-.29,.76-.64-.08-.35-.37-1.31-.79-1.6-.42-.29-1.65-.86-2.54-1.41-.89-.56-2.56-.49-2.56-.49,0,0-.09,.16-.06,.37,.03,.21,.25,.64-.11,1.72-.18,.56-.43,1.39-2.12,3.74-.12,.17-.25,.34-.39,.51-.41-1.69-.78-3.63-1.08-5.61,1-.35,1.95-.71,2.69-1.04,2-.89,4.46-1.78,5.41-2.12,.96-.34,.58-.55,.29-1.06-.29-.51-.75-.51-1.08-.59-.33-.08-.79-.42-1.17-.59-.37-.17-1.62-.43-2.54,.08-.92,.51-.92,.42-3,1.83-.32,.22-.66,.42-1.01,.61-.37-3.09-.55-5.95-.45-7.61,.14-2.27,.05-1.93,.2-2.76,.16-.83,.31-1.56,.31-1.84s-.13-.9-.13-.9c0,0,0-.21-.87-.41-.88-.2-2.17-.39-2.67-.53-.5-.14-1.1-.24-2.42-.22-1.32,.02-2.16,.26-2.16,.26,0,0,1.71,1.75,2.06,2.33,.38,.63,1.02,1.37,1.23,3.33,.16,1.46,.65,5.52,1.14,9.27-.52,.46-1.09,.95-1.54,1.03-1.49,.29-3.61,.23-3.61,.23,0,0,.13,.67,.24,.91,.11,.24,.67,.63,1.56,1.08,.46,.24,1.02,.32,2.86,.01,.26-.05,.57-.11,.89-.18,0,.05,.01,.1,.02,.14,.28,2.02,.83,4.96,1.55,7.83-1.19,1.08-2.45,2.06-3.63,2.79-2.59,1.6-4.14,2.51-4.14,2.51,0,0,.47,0,.71,.02,.24,.02,.43,.17,.61,.19,.18,.03,2.48-.29,3.84-.87,.86-.36,2.12-.87,3.47-1.54,.42,1.34,.87,2.58,1.34,3.58,1.76,3.74,3.14,5.55,5.61,7.07,2.48,1.52,3.55,1.6,4.87,1.92,1.32,.32,1.75-.21,1.8-1.28,.05-1.07,.02-4.72,.15-5.71,.13-.99,.13-4.78,.08-6.77Z"/><path class="f" d="M83.37,11.84c.93,.86,2.44,2.03,3.05,2.43,.61,.4,1.5,.79,1.75,.68,.25-.11,.96-.43,1.22-.62,.26-.19,.42-.31,.7-.39,.28-.08,.26-.09,.19-.55-.05-.31-.34-1.4-.88-2.32-.54-.93-1.44-1.24-2.22-1.39-.77-.15-1.92-.29-3.18-.29-1.26,0-2.97,.41-2.97,.41,0,0,.32,.14,.55,.35,.22,.2,.87,.84,1.8,1.7Z"/></g><path class="f" d="M135.14,38.27c-.55-1.13-1.66-2.93-2.42-3.85-.75-.92-3.98-3.29-4.43-3.44-.45-.15-1.06,.05-1.71,.46-.65,.41-1.71,.62-3.32,1.13-1.35,.43-5.57,1.11-9.27,1.66-.36-.88-.84-2.18-1.16-3.45-.28-1.12-.74-3.27-1.2-5.59,1.62-.27,3.48-.67,4.19-.92,1.13-.39,3.3-.84,4.13-.82,.83,.02,.78-.21,.28-.89-.5-.68-1.14-1.48-2.06-2.3-.92-.82-1.92-1.28-2.53-1.25-.62,.03-2.36,.16-4.07,.77-.28,.1-.57,.21-.88,.31-.09-.51-.16-1-.23-1.44-.55-3.65-.5-4.11-.15-5.09,.35-.98,1.11-1.13,.2-1.64-.52-.29-1.56-.67-2.36-.94,1.77-.39,3.67-.7,4.64-.72,1.32-.04,3.21-.71,3.21-.71,0,0,.24-.3,.68-1.13,.44-.83,.62-1.65,1.01-2.33,.39-.69-.24-1-.83-1.29-.58-.29-1.7-.92-2.68-1.3-.98-.38-2.18-.44-2.18-.44,0,0-.94,.29-2.12,.87-1.18,.58-5.65,2.32-8.83,3.37-2.14,.7-5.56,1.43-6.62,1.43-1.06,0-1.75,.32-1.75,.32,0,0,.25,.95,.57,1.48,.29,.48,.36,.8,.66,1.08,.3,.29,.87,.55,1.68,.9,.81,.35,1.88,.71,3.69,.36,.9-.18,2.14-.4,3.41-.64,.27,.73,.77,2.27,1.3,4.77,.33,1.56,.72,3.29,1.1,4.91-.02,0-.04,.01-.06,.02-2.55,.7-6.02,1.32-7.35,1.47-1.33,.15-3.5-.12-4.03-.12-1.69,0-.42,.42-.02,.62,.4,.21,.49,.46,.64,.74,.15,.28,.15,.59,.55,.98,.4,.38,1.18,.6,2.38,.97,1.2,.37,2.4,1.03,4.78,2.15,1.06,.49,1.83,.91,1.91,1.21,.43,1.78,3.69,3.05,3.84,4.23,.04,.35,.08,.71,.1,1.05-2.9,.55-5.99,1.24-9.21,1.93-4.78,1.03-6.17,.54-6.17,.54,0,0-.93,1.1-.43,2.03,.5,.93,1.41,1.75,2.42,2.26,1.01,.51,1.66,.46,2.22,.21,.55-.26,3.63-.92,6.45-1.9,2.82-.98,6.3-1.34,8.66-1.54,2.37-.21,8.46-.57,9.77-.41,1.31,.15,4.33,.31,5.64,.41,1.31,.1,2.32-.31,3.55-.11,1.23,.2,2.19,.31,3.6,.77,1.41,.46,1.36,0,.81-1.13Z"/></g><polygon class="f" points="67.5 25.21 69.51 23.42 69.44 29.17 67.32 31.08 67.5 25.21"/><polygon class="e" points="96.56 32.53 102.34 32.53 102.34 35.11 96.61 35.11 96.56 32.53"/><g><path class="g" d="M70.2,5.83v1.27c-.37-.51-.93-1.27-.93-1.27h-6.43v1.27c-.37-.51-.93-1.27-.93-1.27h-1.73v1.08c-.1-.16-.22-.32-.36-.46-.46-.45-1.1-.71-1.75-.71s-1.28,.26-1.75,.71c-.14,.14-.27,.3-.37,.46v-1.09h-2.01v1.44h-.35v-1.44h-2.01v.31c-.39-.26-.84-.4-1.34-.4-1.03,0-1.78,.72-1.78,1.7,0,.48,.17,.8,.41,1.03-.02,.03-.73,1.2-.73,1.2l.29,.28c.5,.47,1.01,.68,1.66,.68s1.15-.23,1.49-.61v.52h2.01v-1.51h.35v1.51h2.01v-1.06c.14,.23,.33,.43,.55,.61,.45,.36,1.01,.56,1.57,.56,.65,0,1.29-.26,1.75-.71,.14-.14,.26-.29,.36-.46v1.07h1.97v-1.27c.37,.51,.93,1.27,.93,1.27h6.43v-1.27c.37,.51,.93,1.27,.93,1.27h1.72V5.83h-1.97Z"/><path class="g" d="M87.86,6.1c-.42-.27-.91-.27-1.39-.27h-1.63v1.24l-.19-1.24h-1.8s-.22,.73-.31,1.04c-.11-.37-.31-1.04-.31-1.04h-1.8l-.07,.49v-.49h-2v2.28c0,.19,0,.55-.05,.67h-.2s-.04-.15-.04-.44v-2.51h-3.74v2.44c-.19,.16-.41,.35-.41,.35l-.93,.85,.23,.36c.35,.53,.87,.82,1.51,.82,.6,0,1.1-.28,1.38-.77,.06-.1,.1-.19,.13-.29,.06,.16,.15,.31,.27,.45,.36,.42,.92,.62,1.7,.62,.69,0,1.2-.16,1.56-.48l-.06,.38h1.95s.04-.33,.05-.39c0,0,.11,.39,.11,.39h1.42l.11-.38c.01,.08,.05,.38,.05,.38h3.37v-1.23c.37,0,.72-.03,1.07-.23,.49-.29,.76-.82,.76-1.49s-.27-1.19-.75-1.49Z"/></g><g><path class="e" d="M50.11,9.36c.28,0,.46-.17,.46-.38,0-.3-.2-.38-.62-.49-.67-.18-1-.45-1-1.03,0-.69,.5-1.2,1.28-1.2,.41,0,.78,.11,1.1,.33l-.32,.73c-.23-.2-.48-.3-.71-.3-.25,0-.41,.13-.41,.31,0,.26,.25,.32,.59,.41,.66,.18,1.02,.42,1.02,1.11,0,.77-.55,1.31-1.42,1.31-.52,0-.92-.17-1.32-.54l.46-.75c.3,.34,.59,.51,.88,.51Z"/><path class="e" d="M52.08,6.34h1.01v1.44h1.35v-1.44h1.01v3.71h-1.01v-1.51h-1.35v1.51h-1.01v-3.71Z"/><path class="e" d="M58.07,9.3c-.59,0-.97-.48-.97-1.09s.4-1.09,.97-1.09,.97,.49,.97,1.09-.39,1.09-.97,1.09Zm1.98-1.09c0-.52-.2-1.01-.58-1.38-.37-.36-.89-.57-1.41-.57s-1.03,.21-1.4,.57c-.38,.37-.58,.85-.58,1.38,0,.6,.25,1.13,.72,1.5,.36,.29,.81,.45,1.26,.45,.52,0,1.03-.2,1.41-.57,.37-.36,.58-.85,.58-1.38Z"/><path class="e" d="M60.69,6.34h.98l1.4,1.91s.16,.26,.34,.65c-.04-.29-.06-.53-.06-.73v-1.83h.97v3.71h-.97l-1.4-1.91s-.16-.26-.34-.65c.04,.29,.06,.53,.06,.73v1.83h-.98v-3.71Z"/><path class="e" d="M65.11,6.34h2.27v.81h-1.29v.64h1.21v.79h-1.21v.63h1.29v.83h-2.27v-3.71Z"/><path class="e" d="M68.05,6.34h.98l1.4,1.91s.16,.26,.34,.65c-.04-.29-.06-.53-.06-.73v-1.83h.97v3.71h-.97l-1.4-1.91s-.16-.26-.34-.65c.04,.29,.06,.53,.06,.73v1.83h-.98v-3.71Z"/><path class="e" d="M75.83,6.34v2.4c0,.34-.02,.63-.16,.89-.19,.33-.52,.52-.94,.52-.46,0-.83-.2-1.09-.59l.62-.56c.03,.22,.15,.34,.32,.34,.25,0,.25-.33,.25-.96v-2.04h1.01Z"/><path class="e" d="M77.57,6.34v2.01c0,.66,.12,.94,.64,.94,.62,0,.64-.38,.64-1.18v-1.78h1.01v2.21c0,1.12-.47,1.6-1.65,1.6-.63,0-1.06-.15-1.33-.45-.3-.34-.32-.77-.32-1.35v-2h1.01Z"/><path class="e" d="M83.85,10.05l-.22-1.6c-.03-.22-.06-.5-.08-.83-.05,.33-.13,.55-.17,.7l-.5,1.74h-.67l-.5-1.74c-.04-.14-.12-.37-.17-.7-.02,.33-.05,.61-.08,.83l-.22,1.6h-.94l.57-3.71h1l.56,1.91c.04,.12,.09,.28,.12,.5,.03-.21,.07-.37,.11-.51l.57-1.91h1l.57,3.71h-.95Z"/><path class="e" d="M86.29,8.02v-.87h.2c.41,0,.64,.07,.64,.43s-.22,.44-.65,.44h-.19Zm0,2.04v-1.22h.43c.35,0,.63-.02,.89-.17,.33-.2,.52-.57,.52-1.06s-.19-.86-.52-1.07c-.29-.19-.66-.19-1.13-.19h-1.13v3.71h.95Z"/></g><polygon class="g" points="39.29 32.65 40.53 32.08 40.45 34.97 39.23 33.15 39.29 32.65"/><polygon class="g" points="92.94 31.87 92.98 32.36 93.83 32.43 93.87 31.75 92.94 31.87"/><polygon class="g" points="103.31 17.11 103.91 18.87 102.77 19.35 102.71 17.26 103.31 17.11"/><polygon class="g" points="64.22 13.8 65.94 13.29 65.22 14.23 64.45 14.03 64.22 13.8"/><path class="g" d="M116.5,17.79c.41-.4,4.17-4.1,4.17-4.1h-14.66s3.76,3.7,4.17,4.1c.04,.62,.6,8.72,.64,9.29-.25,.25-.47,.52-.63,.83v-5.8c0-1.97-1.85-4.17-4.51-4.17-.45,0-1.41,.1-2.53,.76v-2.43c.22-.38,3.12-5.26,3.12-5.26l-2.26,.71-1.24,.39-8.66,2.73s2.43,2.43,2.83,2.83v1.02c-1.36-3.09-4.12-5.47-7.92-5.47-4.78,0-7.91,3.78-8.69,7.98h-4.59l2.61-4.73s-2.47,.85-2.71,.93c.03-.18,.06-.35,.06-.54,0-1.97-1.6-3.58-3.58-3.58s-3.58,1.6-3.58,3.58c0,1.01,.43,1.93,1.11,2.58-.83,.28-1.38,.47-1.67,.57,0-2.48,0-8.44,0-8.44l-1.55,.82-.85,.87s-.3,.3-.58,.59c-1.23-.41-2.33-.52-3.69-.52-4.5,0-8.65,3.55-9.69,7.87h-4.68c.89-1.6,2.34-4.23,2.34-4.23l-.39-.28c-1.69,.58-6.15,2.1-8.04,2.75,.19-.34,1.65-2.98,1.65-2.98,0,0-6.28,2.16-8.41,2.89,.11-.19,.27-.49,.29-.53,.17-.17,5.14-5.14,5.14-5.14H16.61l1.58,1.55,.87,.85h0s2.63,2.59,2.79,2.75c.11,.19,2.99,5.22,3.21,5.6v4.18c-.45,.44-4.29,4.22-4.29,4.22h10.84s.5,0,.5,0h4.48s-1.34-.27-1.54-.46c.69,.5,1.56,.83,2.6,.83,.91,0,1.76-.27,2.59-.76v.4h10.36l-4.14-4.09v-2.84h5.34c1.26,4.05,5.23,7.28,9.52,7.28,1.35,0,2.44-.08,3.54-.37h3.86c.23,0,.53,0,.94,.01h9.69s-3.69-3.63-4.13-4.07v-2.85h5.22c.95,3.96,4.01,7.4,8.57,7.4,1.89,0,3.52-.59,4.86-1.57-.63,.62-1.11,1.09-1.11,1.09h3.92l-.03-.02c.23,.02,.53,.02,.94,.02h7.28s5.81,0,6.85,0c.45,.21,.94,.35,1.46,.35,2.01,0,3.71-1.64,3.71-3.58,0-.97-.39-1.86-1.06-2.52,.04-.56,.62-8.69,.66-9.3Zm-27.49-.07c1.72,0,2.09,3.02,2.09,5.55s-.36,5.55-2.09,5.55-2.09-3.02-2.09-5.55,.36-5.55,2.09-5.55Zm14.13,6.41c.28-.28,.73-.72,.73-.72,.04-.04,.06-.06,.1-.09v6.27c-.25-.24-.72-.71-.82-.81v-4.64Zm-34.14,.18v4.44c-.17,.17-.51,.5-1.02,1v-4.44c.2-.2,.51-.5,1.02-1Zm-5.26-4.37s.75,1.19,.79,1.26c-1.8,0-5.49,0-6.14,0,.38-1.78,1.27-3.48,2.92-3.48,.46,0,.69,.08,.99,.36,.61,.52,.86,.93,1.43,1.87Zm-5.46,1.88c.44,.44,3.05,3.05,3.48,3.48v3.47c-.11,.1-.23,.15-.45,.15-2.59,0-3.14-3.08-3.14-5.66,0-.45,.04-.94,.11-1.44Zm-29.21-5.4c.42,.41,.64,.63,.98,.97-.36,.66-.91,1.68-.97,1.8-.13-.25-.69-1.27-.98-1.8,.38-.38,.67-.67,.96-.96Zm10.34,11.41v-5.25c.41,.4,.63,.62,.82,.81v3.64c-.29,.28-.71,.69-.71,.69-.04,.04-.07,.07-.11,.11Zm-8.15,.82v-4.21c.13-.23,.59-1.06,1.06-1.91,.28,.27,.72,.71,.87,.86v5.65c0,.76,.33,1.66,.93,2.44-.04-.04-2.42-2.38-2.87-2.82Z"/><g><path class="g" d="M61.76,32.23h-3.1c-.79,0-1.47,.21-2.03,.59v-.59h-6.67c-.5,0-.86,0-.86,0h-2.73v.58c-.55-.38-1.23-.58-2.02-.58h-4.05v2.36c-.32-.76-.99-2.35-.99-2.35h-2.94s-.66,1.58-.99,2.36c-.25-1.49-1.31-2.36-2.93-2.36h-10.34v3.82h1.8v3.86l.56,.48h7.56c.16,0,.84,0,.84,0h1.45s.75,0,.75,0h2.21s.35-.88,.47-1.19h.22c.12,.3,.46,1.19,.46,1.19h5.94c.79,0,1.47-.2,2.02-.58v.58h6.73c.14,0,.58,0,.58,0h2.95v-.59c.56,.38,1.24,.59,2.03,.59h4.01v-8.17h-.91Z"/><path class="g" d="M85.72,32.23h-10.13v2.4c-.33-.79-1.01-2.4-1.01-2.4h-2.94s-.62,1.48-.87,2.07v-2.07h-4.02c-2.19,0-3.6,1.6-3.6,4.08s1.41,4.08,3.6,4.08h5.78s.35-.88,.47-1.19h.22c.12,.31,.46,1.19,.46,1.19h5.9c.08,0,1.07,0,2.07,0h4.06c2.19,0,3.56-1.56,3.56-4.08s-1.36-4.08-3.56-4.08Zm-15.9,4.34h-2.53c0-.06-.02-.14-.02-.26s0-.19,.02-.26h2.75c-.11,.25-.12,.29-.22,.52Z"/><path class="g" d="M115.84,32.23h-2.99c-.77,0-1.45,.2-2,.57v-.57h-4.32s-.12,.37-.17,.52l-.17-.52h-4.33v2.25c-.29-.7-.95-2.25-.95-2.25h-2.94s-.66,1.56-.95,2.27v-2.27h-4.01c-2.19,0-3.6,1.6-3.6,4.08s1.41,4.08,3.6,4.08h5.85s.35-.88,.47-1.19h.22c.12,.3,.46,1.18,.46,1.18h10.83v-.57c.55,.37,1.22,.57,2,.57h3.9v-8.17h-.91Z"/></g><g><path class="e" d="M23.51,34.65h1.8v4.34h1.19v-4.34h1.8v-1.02h-4.79v1.02Z"/><path class="e" d="M37.31,33.63c-.04,.1-2.16,5.13-2.25,5.36h1.26c.04-.1,.47-1.19,.47-1.19h2.13s.42,1.09,.46,1.19h1.26c-.09-.23-2.21-5.26-2.25-5.36h-1.07Zm-.17,3.28l.05-.12,.66-1.66,.7,1.78h-1.41Z"/><path class="e" d="M44.35,33.63h-2.65v5.36h2.65c1.41,0,2.15-.93,2.15-2.68s-.74-2.68-2.15-2.68Zm-.38,4.34h-1.11v-3.33h1.11c.56,0,1.23,.29,1.23,1.66s-.67,1.66-1.23,1.66Z"/><path class="e" d="M47.77,38.99h1.19v-5.36h-1.19v5.36Z"/><path class="e" d="M54.04,36.98h-.17l-1.83-3.35h-1.54v5.36h1.19v-3.6l.19,.29s1.75,3.22,1.8,3.31h1.54v-5.36h-1.19v3.35Z"/><path class="e" d="M56.47,36.31c0,1.73,.78,2.68,2.19,2.68h2.61v-3.16h-1.86v.97h.67v1.17h-1.07c-.56,0-1.23-.29-1.23-1.66s.67-1.66,1.23-1.66h2.26v-1.02h-2.61c-1.42,0-2.19,.95-2.19,2.68Z"/><path class="e" d="M90.83,36.31c0,1.73,.78,2.68,2.19,2.68h2.6v-3.16h-1.86v.97h.67v1.17h-1.07c-.56,0-1.23-.29-1.23-1.66s.67-1.66,1.23-1.66h2.26v-1.02h-2.6c-1.42,0-2.19,.95-2.19,2.68Z"/><path class="e" d="M64.56,36.31c0,1.73,.78,2.68,2.2,2.68h2.61v-1.02h-2.27c-.56,0-1.23-.29-1.23-1.66s.67-1.66,1.23-1.66h2.27v-1.02h-2.61c-1.42,0-2.2,.95-2.2,2.68Z"/><path class="e" d="M72.58,33.63c-.04,.1-2.16,5.13-2.25,5.36h1.25c.04-.1,.47-1.19,.47-1.19h2.13s.42,1.09,.46,1.19h1.26c-.09-.23-2.21-5.26-2.25-5.36h-1.07Zm-.17,3.28l.05-.12,.66-1.66,.7,1.78h-1.41Z"/><path class="e" d="M85.72,33.63h-2.66v5.36h2.66c1.41,0,2.15-.93,2.15-2.68s-.74-2.68-2.15-2.68Zm-.39,4.34h-1.12v-3.33h1.12c.56,0,1.23,.29,1.23,1.66s-.67,1.66-1.23,1.66Z"/><path class="e" d="M98.92,33.63c-.04,.1-2.16,5.13-2.25,5.36h1.26c.04-.1,.47-1.19,.47-1.19h2.14s.42,1.09,.46,1.19h1.26c-.09-.23-2.21-5.26-2.25-5.36h-1.07Zm-.17,3.28l.05-.12,.66-1.66,.7,1.78h-1.41Z"/><path class="e" d="M106.35,37.29s-1.15-3.55-1.18-3.66h-1.9v5.36h1.19v-3.27l.2-.03s1.08,3.18,1.12,3.3h1.16c.04-.11,1.12-3.3,1.12-3.3l.2,.03v3.27h1.19v-5.36h-1.9c-.04,.11-1.19,3.66-1.19,3.66Z"/><path class="e" d="M112.5,34.84c.2-.13,.42-.19,.69-.19h2.15v-1.02h-2.49c-1.42,0-2.2,.95-2.2,2.68s.78,2.68,2.2,2.68h2.49v-1.02h-2.15c-.28,0-.5-.06-.69-.19-.33-.23-.44-.63-.48-.84l-.03-.14h3.34v-.97h-3.34l.02-.14c.03-.17,.14-.6,.48-.84Z"/><path class="e" d="M33.29,36.82c.5-.23,.74-.72,.74-1.5,0-1.17-.49-1.69-1.59-1.69h-3.02v5.36h1.19v-1.98h1.47l.02,.05s.7,1.82,.74,1.92h1.26c-.09-.21-.9-2.13-.9-2.13l.07-.03Zm-1.24-.74h-1.43v-1.44h1.43c.33,0,.77,.07,.77,.7,0,.48-.27,.74-.77,.74Z"/><path class="e" d="M80.87,36.82c.5-.23,.74-.72,.74-1.5,0-1.17-.49-1.69-1.59-1.69h-3.02v5.36h1.19v-1.98h1.47l.02,.05s.7,1.82,.74,1.92h1.26c-.09-.21-.9-2.13-.9-2.13l.07-.03Zm-1.24-.74h-1.43v-1.44h1.43c.33,0,.77,.07,.77,.7,0,.48-.27,.74-.77,.74Z"/></g><g><rect class="e" x="46.86" y="22.61" width="4.36" height="1.91"/><rect class="e" x="75.57" y="22.61" width="4.36" height="1.91"/><path class="e" d="M89.01,14.62c-4.49,0-7.48,4.18-7.48,8.64s2.99,8.64,7.48,8.64,7.48-4.18,7.48-8.64-2.99-8.64-7.48-8.64Zm0,15.6c-2.97,0-3.49-3.88-3.49-6.95s.53-6.95,3.49-6.95,3.49,3.88,3.49,6.95-.53,6.95-3.49,6.95Z"/><polygon class="e" points="29.86 29.24 29.86 24.07 33.26 17.97 36.15 15.1 29.73 15.1 31.8 17.13 29.09 22.13 26.38 17.13 28.41 15.1 20.04 15.1 22.97 17.98 26.46 24.07 26.46 29.21 24.19 31.44 24.69 31.44 24.68 31.44 31.61 31.44 31.61 31.44 32.1 31.44 29.86 29.24"/><polyline class="e" points="70.05 22.44 70.41 22.8 70.41 29.34 68.28 31.44 68.75 31.44 68.74 31.44 75.92 31.44 73.82 29.36 73.82 21.76 75.35 18.98 68.8 21.22 70.05 22.44"/><polygon class="e" points="111.54 17.17 112.2 26.84 113.33 26.84 114.45 26.84 115.13 17.16 117.24 15.09 109.43 15.09 111.54 17.17"/><path class="e" d="M108.78,29.35v-7.24c0-1.3-1.3-2.77-3.1-2.77-.58,0-1.72,.22-2.94,1.44l-1,1v-5.89l1.44-2.44-6.46,2.04,1.61,1.61v12.23l-2.15,2.12h7.67l-2.12-2.08v-5.81l1.14-1.14c.61-.64,1.16-.89,1.55-.89,.69,0,.94,.69,.94,1.05v8.87h5.53l-2.12-2.1Z"/><path class="e" d="M45.05,29.35v-7.61l1.53-2.76-6.54,2.24,1.61,1.58v4.82l-1.14,1.11c-.61,.64-1.14,.89-1.52,.89-.75,0-.97-.67-.97-1.03v-6.89l1.5-2.72-6.52,2.24,1.61,1.58v6.23c0,1.16,1.11,2.77,3.05,2.77,.78,0,1.77-.22,2.99-1.41l1-1v2.05h5.53l-2.12-2.09Z"/><path class="e" d="M68.74,22.6h-7.68l2.12,2.12v4.64c-.25,.19-.67,.97-1.86,.97-3.6,0-4.54-3.74-4.54-7.07s1.38-6.95,4.54-6.95c.81,0,1.38,.21,1.94,.72,.74,.64,1.1,1.2,1.69,2.17l1.64,2.6v-7.57l-1.2,1.22c-1.4-.62-2.45-.73-4.07-.73-4.43,0-8.53,3.99-8.53,8.53s4.1,8.53,8.53,8.53c2.08,0,3.41-.17,5.26-1.19v-5.89l2.15-2.11Z"/><path class="e" d="M72.12,19.04c1.2,0,2.17-.97,2.17-2.17s-.97-2.17-2.17-2.17-2.17,.97-2.17,2.17,.97,2.17,2.17,2.17Z"/><path class="e" d="M113.32,27.45c-1.2,0-2.17,.97-2.17,2.17s.83,2.17,2.03,2.17,2.31-.97,2.31-2.17-.97-2.17-2.17-2.17Z"/></g></g></g></svg>